<svg width="24" height="25" viewBox="0 0 24 25" fill="none" xmlns="http://www.w3.org/2000/svg">
<g clip-path="url(#clip0_136_6124)">
<path fill-rule="evenodd" clip-rule="evenodd" d="M23.8716 22.5594L22.0592 24.3718C21.8839 24.5414 21.6056 24.5414 21.4303 24.3718L16.6179 19.5552L14.8137 22.5676C14.7437 22.6839 14.612 22.7483 14.4772 22.7323C14.3425 22.7162 14.2296 22.6226 14.1889 22.4931L12.4468 17.0518L10.7792 11.838C10.7296 11.6796 10.772 11.5068 10.8893 11.3895C11.0067 11.2721 11.1795 11.2297 11.3379 11.2794L16.5516 12.9469L21.993 14.689C22.1225 14.7297 22.2161 14.8426 22.2321 14.9774C22.2482 15.1121 22.1838 15.2438 22.0675 15.3138L19.0551 17.118L23.8716 21.9304C24.0413 22.1057 24.0413 22.384 23.8716 22.5594Z" fill="white"/>
<path fill-rule="evenodd" clip-rule="evenodd" d="M10.7793 11.8379L12.4469 17.0517H2.06897C1.52024 17.0517 0.993992 16.8337 0.605986 16.4457C0.21798 16.0577 0 15.5315 0 14.9828V2.56897C0 1.42631 0.926307 0.5 2.06897 0.5H14.4828C15.0315 0.5 15.5577 0.71798 15.9457 1.10599C16.3337 1.49399 16.5517 2.02024 16.5517 2.56897V12.9469L11.3379 11.2793C11.1796 11.2296 11.0068 11.2721 10.8894 11.3894C10.7721 11.5068 10.7296 11.6796 10.7793 11.8379Z" fill="#FF5364"/>
<path d="M3.7238 5.46555C4.4094 5.46555 4.96518 4.90976 4.96518 4.22417C4.96518 3.53857 4.4094 2.98279 3.7238 2.98279C3.03821 2.98279 2.48242 3.53857 2.48242 4.22417C2.48242 4.90976 3.03821 5.46555 3.7238 5.46555Z" fill="white"/>
<path d="M12.8273 5.46555C13.5129 5.46555 14.0687 4.90976 14.0687 4.22417C14.0687 3.53857 13.5129 2.98279 12.8273 2.98279C12.1417 2.98279 11.5859 3.53857 11.5859 4.22417C11.5859 4.90976 12.1417 5.46555 12.8273 5.46555Z" fill="white"/>
<path d="M3.7238 14.5689C4.4094 14.5689 4.96518 14.0132 4.96518 13.3276C4.96518 12.642 4.4094 12.0862 3.7238 12.0862C3.03821 12.0862 2.48242 12.642 2.48242 13.3276C2.48242 14.0132 3.03821 14.5689 3.7238 14.5689Z" fill="white"/>
<path d="M8.27556 10.0173C8.96115 10.0173 9.51694 9.46152 9.51694 8.77593C9.51694 8.09033 8.96115 7.53455 8.27556 7.53455C7.58996 7.53455 7.03418 8.09033 7.03418 8.77593C7.03418 9.46152 7.58996 10.0173 8.27556 10.0173Z" fill="white"/>
</g>
<defs>
<clipPath id="clip0_136_6124">
<rect width="24" height="24" fill="white" transform="translate(0 0.5)"/>
</clipPath>
</defs>
</svg>
