<svg width="24" height="25" viewBox="0 0 24 25" fill="none" xmlns="http://www.w3.org/2000/svg">
<g clip-path="url(#clip0_136_6092)">
<path fill-rule="evenodd" clip-rule="evenodd" d="M24 2.98279V22.8449C24 23.759 23.259 24.5 22.3448 24.5H1.65517C0.741046 24.5 0 23.759 0 22.8449V2.98279H24Z" fill="#B0D3F0"/>
<path fill-rule="evenodd" clip-rule="evenodd" d="M24 2.15517V3.81034H0V2.15517C0 1.24105 0.741046 0.5 1.65517 0.5H22.3448C23.259 0.5 24 1.24105 24 2.15517Z" fill="#3B97D3"/>
<path d="M2.06907 2.56892C2.2976 2.56892 2.48286 2.38366 2.48286 2.15513C2.48286 1.92659 2.2976 1.74133 2.06907 1.74133C1.84053 1.74133 1.65527 1.92659 1.65527 2.15513C1.65527 2.38366 1.84053 2.56892 2.06907 2.56892Z" fill="#65DDB9"/>
<path d="M3.72434 2.56892C3.95287 2.56892 4.13813 2.38366 4.13813 2.15513C4.13813 1.92659 3.95287 1.74133 3.72434 1.74133C3.49581 1.74133 3.31055 1.92659 3.31055 2.15513C3.31055 2.38366 3.49581 2.56892 3.72434 2.56892Z" fill="#F3D55B"/>
<path d="M5.37961 2.56892C5.60814 2.56892 5.79341 2.38366 5.79341 2.15513C5.79341 1.92659 5.60814 1.74133 5.37961 1.74133C5.15108 1.74133 4.96582 1.92659 4.96582 2.15513C4.96582 2.38366 5.15108 2.56892 5.37961 2.56892Z" fill="#FF5364"/>
<path d="M10.215 12.5C6.59678 12.4342 6.61126 9.83893 6.62119 7.94376C6.62482 7.48927 6.99345 7.1223 7.44795 7.12073H16.5514C17.0064 7.12185 17.3756 7.4892 17.379 7.94418C17.3889 9.83687 17.4034 12.4293 13.798 12.5H10.215ZM7.44795 7.94831C7.43554 10.1671 7.62216 11.6253 10.2204 11.6725H13.7868C16.3743 11.622 16.5593 10.165 16.5485 7.94831H7.44795Z" fill="#B19046"/>
<path fill-rule="evenodd" clip-rule="evenodd" d="M10.3452 14.9828H13.6555C14.1126 14.9828 14.4831 15.3533 14.4831 15.8104V17.0518C14.4831 17.2803 14.2978 17.4655 14.0693 17.4655H9.93137C9.70284 17.4655 9.51758 17.2803 9.51758 17.0518V15.8104C9.51758 15.3533 9.8881 14.9828 10.3452 14.9828Z" fill="#F0C419"/>
<path fill-rule="evenodd" clip-rule="evenodd" d="M13.6551 14.9827C13.2111 14.2083 12.9453 13.3446 12.8771 12.4545H11.1227C11.0545 13.3446 10.7887 14.2083 10.3447 14.9827H13.6551Z" fill="#B19046"/>
<path fill-rule="evenodd" clip-rule="evenodd" d="M15.3101 17.8794V22.4311H8.68945V17.8794C8.68945 17.6508 8.87471 17.4656 9.10325 17.4656H14.8963C15.1249 17.4656 15.3101 17.6508 15.3101 17.8794Z" fill="#F3D55B"/>
<path fill-rule="evenodd" clip-rule="evenodd" d="M8.68932 19.9482V22.431H2.89621C2.66768 22.431 2.48242 22.2457 2.48242 22.0172V20.362C2.48242 20.1335 2.66768 19.9482 2.89621 19.9482H8.68932Z" fill="#95A5A5"/>
<path fill-rule="evenodd" clip-rule="evenodd" d="M21.5174 20.362V22.0172C21.5174 22.2457 21.3322 22.431 21.1036 22.431H15.3105V19.9482H21.1036C21.3322 19.9482 21.5174 20.1335 21.5174 20.362Z" fill="#E57E25"/>
<path d="M6.62089 14.1551C6.62089 14.3837 6.80615 14.5689 7.03468 14.5689C7.26322 14.5689 7.44848 14.3837 7.44848 14.1551C7.44848 13.3557 6.73634 12.6874 5.79331 12.5335V12.5C5.79331 12.2714 5.60804 12.0862 5.37951 12.0862C5.15098 12.0862 4.96572 12.2714 4.96572 12.5V12.5335C4.02268 12.6874 3.31055 13.3557 3.31055 14.1551C3.31055 14.9546 4.02268 15.6229 4.96572 15.7768V17.4129C4.48986 17.2958 4.13813 16.99 4.13813 16.6379C4.13813 16.4094 3.95287 16.2241 3.72434 16.2241C3.49581 16.2241 3.31055 16.4094 3.31055 16.6379C3.31055 17.4374 4.02268 18.1056 4.96572 18.2596V18.2931C4.96572 18.5216 5.15098 18.7069 5.37951 18.7069C5.60804 18.7069 5.79331 18.5216 5.79331 18.2931V18.2596C6.73634 18.1056 7.44848 17.4374 7.44848 16.6379C7.44848 15.8385 6.73634 15.1702 5.79331 15.0163V13.3801C6.26917 13.4972 6.62089 13.803 6.62089 14.1551ZM4.13813 14.1551C4.13813 13.803 4.48986 13.4972 4.96572 13.3801V14.9302C4.48986 14.8131 4.13813 14.5073 4.13813 14.1551ZM6.62089 16.6379C6.62089 16.99 6.26917 17.2958 5.79331 17.4129V15.8629C6.26917 15.98 6.62089 16.2858 6.62089 16.6379Z" fill="#24AE5F"/>
<path d="M19.0345 15.0163V13.3801C19.5104 13.4972 19.8621 13.803 19.8621 14.1551C19.8621 14.3837 20.0474 14.5689 20.2759 14.5689C20.5044 14.5689 20.6897 14.3837 20.6897 14.1551C20.6897 13.3557 19.9776 12.6874 19.0345 12.5335V12.5C19.0345 12.2714 18.8493 12.0862 18.6207 12.0862C18.3922 12.0862 18.2069 12.2714 18.2069 12.5V12.5335C17.2639 12.6874 16.5518 13.3557 16.5518 14.1551C16.5518 14.9546 17.2639 15.6229 18.2069 15.7768V17.4129C17.7311 17.2958 17.3793 16.99 17.3793 16.6379C17.3793 16.4094 17.1941 16.2241 16.9656 16.2241C16.737 16.2241 16.5518 16.4094 16.5518 16.6379C16.5518 17.4374 17.2639 18.1056 18.2069 18.2596V18.2931C18.2069 18.5216 18.3922 18.7069 18.6207 18.7069C18.8493 18.7069 19.0345 18.5216 19.0345 18.2931V18.2596C19.9776 18.1056 20.6897 17.4374 20.6897 16.6379C20.6897 15.8385 19.9776 15.1702 19.0345 15.0163ZM17.3793 14.1551C17.3793 13.803 17.7311 13.4972 18.2069 13.3801V14.9302C17.7311 14.8131 17.3793 14.5073 17.3793 14.1551ZM19.0345 17.4129V15.8629C19.5104 15.98 19.8621 16.2858 19.8621 16.6379C19.8621 16.99 19.5104 17.2958 19.0345 17.4129Z" fill="#24AE5F"/>
<path fill-rule="evenodd" clip-rule="evenodd" d="M9.51731 5.87927H14.4828C14.7114 5.87927 14.8966 6.06453 14.8966 6.29307V10.0172C14.8966 11.3884 13.7851 12.5 12.4139 12.5H11.5863C10.2151 12.5 9.10352 11.3884 9.10352 10.0172V6.29307C9.10352 6.06453 9.28878 5.87927 9.51731 5.87927Z" fill="#F0C419"/>
</g>
<defs>
<clipPath id="clip0_136_6092">
<rect width="24" height="24" fill="white" transform="translate(0 0.5)"/>
</clipPath>
</defs>
</svg>
