<svg width="24" height="25" viewBox="0 0 24 25" fill="none" xmlns="http://www.w3.org/2000/svg">
<g clip-path="url(#clip0_136_6149)">
<path fill-rule="evenodd" clip-rule="evenodd" d="M19.0348 17.7469V22.0172C19.0348 23.3884 17.9232 24.5 16.552 24.5H7.44858C6.07739 24.5 4.96582 23.3884 4.96582 22.0172V2.98276C4.96582 1.61157 6.07739 0.5 7.44858 0.5H16.552C17.9232 0.5 19.0348 1.61157 19.0348 2.98276V17.7469Z" fill="#90BAE1"/>
<path fill-rule="evenodd" clip-rule="evenodd" d="M19.0349 2.98276C19.0349 2.98276 5.71492 2.58965 4.99906 22.3938C4.97555 22.2697 4.96447 22.1435 4.96595 22.0172V2.98276C4.96595 1.61157 6.07752 0.5 7.44871 0.5H16.5522C17.9233 0.5 19.0349 1.61157 19.0349 2.98276Z" fill="#B0D3F0"/>
<path fill-rule="evenodd" clip-rule="evenodd" d="M16.5517 0.5L16.0361 1.78855C15.8476 2.25982 15.3912 2.56888 14.8837 2.56897H9.11624C8.60868 2.56888 8.1523 2.25982 7.96383 1.78855L7.44824 0.5" fill="#464F5D"/>
<path fill-rule="evenodd" clip-rule="evenodd" d="M16.5524 22.8448H7.44895C7.22042 22.8448 7.03516 22.6595 7.03516 22.431C7.03516 22.2025 7.22042 22.0172 7.44895 22.0172H16.5524C16.7809 22.0172 16.9662 22.2025 16.9662 22.431C16.9662 22.6595 16.7809 22.8448 16.5524 22.8448Z" fill="#464F5D"/>
<path fill-rule="evenodd" clip-rule="evenodd" d="M4.96582 5.46558H9.51754V8.77592H4.96582V5.46558Z" fill="#F3D55B"/>
<path fill-rule="evenodd" clip-rule="evenodd" d="M9.51758 5.46558H19.0348V8.77592H9.51758V5.46558Z" fill="#4FBA6F"/>
<path fill-rule="evenodd" clip-rule="evenodd" d="M4.96582 8.77588H9.51754V12.0862H4.96582V8.77588Z" fill="#F0C419"/>
<path fill-rule="evenodd" clip-rule="evenodd" d="M9.51758 8.77588H19.0348V12.0862H9.51758V8.77588Z" fill="#24AE5F"/>
<path fill-rule="evenodd" clip-rule="evenodd" d="M4.96582 12.0862H9.51754V15.3965H4.96582V12.0862Z" fill="#F3D55B"/>
<path fill-rule="evenodd" clip-rule="evenodd" d="M9.51754 5.46558V7.83247C9.27341 8.12627 9.03341 8.44075 8.80582 8.77592H4.96582V5.46558H9.51754Z" fill="#F9EAB0"/>
<path fill-rule="evenodd" clip-rule="evenodd" d="M12.0003 5.46558C11.0772 6.1478 10.2431 6.94295 9.51758 7.83247V5.46558H12.0003Z" fill="#71C285"/>
<path fill-rule="evenodd" clip-rule="evenodd" d="M8.80582 8.77588C8.08681 9.81033 7.48321 10.9204 7.00582 12.0862H4.96582V8.77588H8.80582Z" fill="#F3D55B"/>
<path fill-rule="evenodd" clip-rule="evenodd" d="M7.00582 12.0862C6.56073 13.1604 6.1983 14.2671 5.92168 15.3965H4.96582V12.0862H7.00582Z" fill="#F9EAB0"/>
<path fill-rule="evenodd" clip-rule="evenodd" d="M9.51758 12.0862H19.0348V15.3965H9.51758V12.0862Z" fill="#4FBA6F"/>
<path fill-rule="evenodd" clip-rule="evenodd" d="M7.8622 7.5345H6.62082C6.39229 7.5345 6.20703 7.34923 6.20703 7.1207C6.20703 6.89217 6.39229 6.70691 6.62082 6.70691H7.8622C8.09074 6.70691 8.276 6.89217 8.276 7.1207C8.276 7.34923 8.09074 7.5345 7.8622 7.5345Z" fill="#D25627"/>
<path fill-rule="evenodd" clip-rule="evenodd" d="M7.8622 10.8448H6.62082C6.39229 10.8448 6.20703 10.6595 6.20703 10.431C6.20703 10.2025 6.39229 10.0172 6.62082 10.0172H7.8622C8.09074 10.0172 8.276 10.2025 8.276 10.431C8.276 10.6595 8.09074 10.8448 7.8622 10.8448Z" fill="#D25627"/>
<path fill-rule="evenodd" clip-rule="evenodd" d="M7.8622 14.1552H6.62082C6.39229 14.1552 6.20703 13.97 6.20703 13.7414C6.20703 13.5129 6.39229 13.3276 6.62082 13.3276H7.8622C8.09074 13.3276 8.276 13.5129 8.276 13.7414C8.276 13.97 8.09074 14.1552 7.8622 14.1552Z" fill="#D25627"/>
<path fill-rule="evenodd" clip-rule="evenodd" d="M17.3795 14.1552H11.1726C10.9441 14.1552 10.7588 13.97 10.7588 13.7414C10.7588 13.5129 10.9441 13.3276 11.1726 13.3276H17.3795C17.608 13.3276 17.7933 13.5129 17.7933 13.7414C17.7933 13.97 17.608 14.1552 17.3795 14.1552Z" fill="#4C8056"/>
<path fill-rule="evenodd" clip-rule="evenodd" d="M17.3795 10.8448H11.1726C10.9441 10.8448 10.7588 10.6595 10.7588 10.431C10.7588 10.2025 10.9441 10.0172 11.1726 10.0172H17.3795C17.608 10.0172 17.7933 10.2025 17.7933 10.431C17.7933 10.6595 17.608 10.8448 17.3795 10.8448Z" fill="#4C8056"/>
<path fill-rule="evenodd" clip-rule="evenodd" d="M17.3795 7.5345H11.1726C10.9441 7.5345 10.7588 7.34923 10.7588 7.1207C10.7588 6.89217 10.9441 6.70691 11.1726 6.70691H17.3795C17.608 6.70691 17.7933 6.89217 17.7933 7.1207C17.7933 7.34923 17.608 7.5345 17.3795 7.5345Z" fill="#4C8056"/>
<path d="M15.3103 17.4656H8.68962C8.00403 17.4656 7.44824 18.0214 7.44824 18.707C7.44824 19.3926 8.00403 19.9483 8.68962 19.9483H15.3103C15.9959 19.9483 16.5517 19.3926 16.5517 18.707C16.5517 18.0214 15.9959 17.4656 15.3103 17.4656Z" fill="#3B97D3"/>
</g>
<defs>
<clipPath id="clip0_136_6149">
<rect width="24" height="24" fill="white" transform="translate(0 0.5)"/>
</clipPath>
</defs>
</svg>
