<svg width="24" height="25" viewBox="0 0 24 25" fill="none" xmlns="http://www.w3.org/2000/svg">
<g clip-path="url(#clip0_136_6189)">
<path fill-rule="evenodd" clip-rule="evenodd" d="M14.483 17.7469V22.0172C14.483 23.3884 13.3715 24.5 12.0003 24.5H2.89682C1.52563 24.5 0.414062 23.3884 0.414062 22.0172V2.98276C0.414062 1.61157 1.52563 0.5 2.89682 0.5H12.0003C13.3715 0.5 14.483 1.61157 14.483 2.98276V17.7469Z" fill="#90BAE1"/>
<path fill-rule="evenodd" clip-rule="evenodd" d="M14.4832 2.98276C14.4832 2.98276 1.16316 2.58965 0.447298 22.3938C0.423797 22.2697 0.412707 22.1435 0.414194 22.0172V2.98276C0.414194 1.61157 1.52576 0.5 2.89695 0.5H12.0004C13.3716 0.5 14.4832 1.61157 14.4832 2.98276Z" fill="#B0D3F0"/>
<path fill-rule="evenodd" clip-rule="evenodd" d="M12.0009 0.5L11.4853 1.78855C11.2969 2.25982 10.8405 2.56888 10.3329 2.56897H4.56546C4.0579 2.56888 3.60152 2.25982 3.41305 1.78855L2.89746 0.5" fill="#464F5D"/>
<path fill-rule="evenodd" clip-rule="evenodd" d="M12.0006 22.8448H2.89719C2.66866 22.8448 2.4834 22.6595 2.4834 22.431C2.4834 22.2025 2.66866 22.0172 2.89719 22.0172H12.0006C12.2292 22.0172 12.4144 22.2025 12.4144 22.431C12.4144 22.6595 12.2292 22.8448 12.0006 22.8448Z" fill="#464F5D"/>
<path fill-rule="evenodd" clip-rule="evenodd" d="M8.69077 6.81454V5.87937C8.69077 5.65084 8.50551 5.46558 8.27697 5.46558H6.6218C6.39327 5.46558 6.20801 5.65084 6.20801 5.87937V19.1207C6.20801 19.3493 6.39327 19.5345 6.6218 19.5345H8.27697C8.50551 19.5345 8.69077 19.3493 8.69077 19.1207V6.81454Z" fill="#464F5D"/>
<path fill-rule="evenodd" clip-rule="evenodd" d="M6.20703 8.78005C6.66087 8.17427 7.22186 7.65676 7.8622 7.25316C8.12588 7.08504 8.40264 6.93836 8.68979 6.81454C11.2914 5.67509 14.3346 6.44695 16.0787 8.68862C17.8228 10.9303 17.8228 14.0698 16.0787 16.3115C14.3346 18.5532 11.2914 19.325 8.68979 18.1856C8.40264 18.0617 8.12588 17.9151 7.8622 17.7469C7.22186 17.3433 6.66087 16.8258 6.20703 16.2201V8.78005Z" fill="#F3D55B"/>
<path d="M11.5867 12.1122V9.22022C12.5182 9.35884 13.2419 9.9518 13.2419 10.6379C13.2419 10.8664 13.4271 11.0517 13.6557 11.0517C13.8842 11.0517 14.0695 10.8664 14.0695 10.6379C14.0695 9.49373 12.9882 8.54656 11.5867 8.38808V7.94822C11.5867 7.71969 11.4015 7.53442 11.1729 7.53442C10.9444 7.53442 10.7591 7.71969 10.7591 7.94822V8.38808C9.35761 8.54656 8.27637 9.49373 8.27637 10.6379C8.27637 11.782 9.35761 12.7292 10.7591 12.8877V15.7797C9.82768 15.641 9.10395 15.0481 9.10395 14.362C9.10395 14.1335 8.91869 13.9482 8.69016 13.9482C8.46163 13.9482 8.27637 14.1335 8.27637 14.362C8.27637 15.5061 9.35761 16.4533 10.7591 16.6118V17.0517C10.7591 17.2802 10.9444 17.4655 11.1729 17.4655C11.4015 17.4655 11.5867 17.2802 11.5867 17.0517V16.6118C12.9882 16.4533 14.0695 15.5061 14.0695 14.362C14.0695 13.2179 12.9882 12.2707 11.5867 12.1122ZM9.10395 10.6379C9.10395 9.9518 9.82768 9.35884 10.7591 9.22022V12.0555C9.82768 11.9169 9.10395 11.3239 9.10395 10.6379ZM11.5867 15.7797V12.9444C12.5182 13.083 13.2419 13.6759 13.2419 14.362C13.2419 15.0481 12.5182 15.641 11.5867 15.7797Z" fill="#B19046"/>
<path fill-rule="evenodd" clip-rule="evenodd" d="M23.1728 12.9138H19.0349C18.8064 12.9138 18.6211 12.7285 18.6211 12.5C18.6211 12.2714 18.8064 12.0862 19.0349 12.0862H23.1728C23.4013 12.0862 23.5866 12.2714 23.5866 12.5C23.5866 12.7285 23.4013 12.9138 23.1728 12.9138Z" fill="#2FA8CC"/>
<path fill-rule="evenodd" clip-rule="evenodd" d="M21.9312 10.8448H18.6208C18.3923 10.8448 18.207 10.6595 18.207 10.431C18.207 10.2025 18.3923 10.0172 18.6208 10.0172H21.9312C22.1597 10.0172 22.345 10.2025 22.345 10.431C22.345 10.6595 22.1597 10.8448 21.9312 10.8448Z" fill="#2FA8CC"/>
<path fill-rule="evenodd" clip-rule="evenodd" d="M21.9312 14.9827H18.6208C18.3923 14.9827 18.207 14.7975 18.207 14.5689C18.207 14.3404 18.3923 14.1552 18.6208 14.1552H21.9312C22.1597 14.1552 22.345 14.3404 22.345 14.5689C22.345 14.7975 22.1597 14.9827 21.9312 14.9827Z" fill="#2FA8CC"/>
</g>
<defs>
<clipPath id="clip0_136_6189">
<rect width="24" height="24" fill="white" transform="translate(0 0.5)"/>
</clipPath>
</defs>
</svg>
