<svg width="33" height="32" viewBox="0 0 33 32" fill="none" xmlns="http://www.w3.org/2000/svg">
<g clip-path="url(#clip0_136_5970)">
<path d="M5.42577 13.4102C5.1669 13.4102 4.95703 13.62 4.95703 13.8789V27.0964C4.95703 27.3553 5.1669 27.5651 5.42577 27.5651H27.5736C27.8324 27.5651 28.0423 27.3553 28.0423 27.0964V13.8789C28.0423 13.62 27.8324 13.4102 27.5736 13.4102H5.42577ZM5.8945 14.3476H23.7182V26.6276H5.8945V14.3476ZM27.1048 26.6276H24.6556V14.3476H27.1048V26.6276Z" fill="#192A32"/>
<path d="M31.2049 28.5025H29.9173V24.6252C29.9173 24.3663 29.7075 24.1565 29.4486 24.1565C29.1897 24.1565 28.9799 24.3663 28.9799 24.6252V28.5025H4.01965V13.2539C4.01965 12.8231 4.37008 12.4726 4.80088 12.4726H28.1986C28.6294 12.4726 28.9799 12.8231 28.9799 13.2539V22.6461C28.9799 22.905 29.1897 23.1148 29.4486 23.1148C29.7075 23.1148 29.9173 22.905 29.9173 22.6461V13.2539C29.9173 12.3062 29.1463 11.5352 28.1986 11.5352H4.80088C3.85315 11.5352 3.08218 12.3062 3.08218 13.2539V28.5025H1.79459C-0.412971 28.7118 0.687059 32.0654 2.89081 31.9999C2.89081 32 30.1088 32 30.1088 32C32.3133 32.0649 33.412 28.7112 31.2049 28.5025ZM30.1087 31.0625H2.89074C2.1412 31.0625 1.53141 30.4527 1.53141 29.7032C1.53141 29.5581 1.64947 29.44 1.79453 29.44H31.2048C31.35 29.44 31.468 29.5581 31.468 29.7032C31.468 30.4527 30.8583 31.0625 30.1087 31.0625Z" fill="#192A32"/>
<path d="M21.1881 15.6562H18.0382C17.7341 15.6562 17.4547 15.7636 17.2357 15.9422C17.0167 15.7636 16.7373 15.6562 16.4332 15.6562H13.2833C12.9842 15.6562 12.7085 15.7577 12.4909 15.9308C12.2733 15.7577 11.9975 15.6562 11.6985 15.6562H8.54856C7.84758 15.6562 7.27734 16.2265 7.27734 16.9275V24.0438C7.27734 24.7448 7.84764 25.315 8.54856 25.315H11.6985C11.9976 25.315 12.2733 25.2136 12.4909 25.0405C12.7085 25.2136 12.9842 25.315 13.2833 25.315H16.4332C16.7373 25.315 17.0167 25.2077 17.2357 25.029C17.4547 25.2077 17.7341 25.315 18.0382 25.315H21.1881C21.889 25.315 22.4593 24.7448 22.4593 24.0438V16.9275C22.4593 16.2265 21.889 15.6562 21.1881 15.6562ZM21.5219 24.0439C21.5219 24.2279 21.3721 24.3776 21.1881 24.3776H18.0382C17.8541 24.3776 17.7044 24.2279 17.7044 24.0439C17.683 23.4233 16.7883 23.4236 16.7669 24.0439C16.7669 24.2279 16.6173 24.3776 16.4332 24.3776H13.2833C13.1202 24.3776 12.9787 24.256 12.9543 24.0946C12.8666 23.5673 12.115 23.5676 12.0275 24.0946C12.003 24.256 11.8615 24.3776 11.6985 24.3776H8.54856C8.3645 24.3776 8.21482 24.2279 8.21482 24.0439V16.9275C8.21482 16.7435 8.36456 16.5937 8.54856 16.5937H11.6985C11.8615 16.5937 12.003 16.7153 12.0275 16.8767C12.1151 17.4041 12.8668 17.4038 12.9543 16.8767C12.9788 16.7153 13.1202 16.5937 13.2833 16.5937H16.4332C16.6173 16.5937 16.7669 16.7435 16.7669 16.9275C16.7884 17.548 17.6831 17.5478 17.7044 16.9275C17.7044 16.7435 17.8542 16.5937 18.0382 16.5937H21.1881C21.3721 16.5937 21.5219 16.7435 21.5219 16.9275V24.0439Z" fill="#192A32"/>
<path d="M15.3002 17.9291C15.2005 17.6939 14.9251 17.5776 14.6877 17.6753C14.1264 17.9376 14.4637 18.7536 15.0465 18.5411C15.2842 18.4426 15.3949 18.1663 15.3002 17.9291Z" fill="#192A32"/>
<path d="M15.1272 20.0969C14.9134 19.953 14.613 20.0164 14.4738 20.2325C14.1625 20.7647 14.8927 21.2428 15.2572 20.747C15.3973 20.5372 15.3415 20.2349 15.1272 20.0969Z" fill="#192A32"/>
<path d="M15.2997 22.6829C15.2072 22.4643 14.9589 22.3449 14.7308 22.4142C14.1366 22.6255 14.412 23.4799 15.0174 23.3062C15.2706 23.2208 15.4015 22.9294 15.2997 22.6829Z" fill="#192A32"/>
<path d="M10.5951 17.9288C10.5001 17.6919 10.2172 17.5785 9.98322 17.675C9.42115 17.9382 9.75815 18.7523 10.342 18.5413C10.5768 18.4444 10.6941 18.1634 10.5951 17.9288Z" fill="#192A32"/>
<path d="M10.4223 20.0963C10.2071 19.9549 9.90845 20.0138 9.7687 20.2319C9.45757 20.7648 10.1874 21.2421 10.5517 20.7464C10.6927 20.5344 10.6358 20.2371 10.4223 20.0963Z" fill="#192A32"/>
<path d="M10.5951 22.6824C10.5001 22.4452 10.2168 22.3324 9.9832 22.4292C9.42089 22.6923 9.75864 23.506 10.342 23.2949C10.5781 23.1971 10.6925 22.9182 10.5951 22.6824Z" fill="#192A32"/>
<path d="M19.1407 18.2875C19.24 18.5229 19.5155 18.6387 19.7526 18.5414C20.3144 18.2789 19.9782 17.4642 19.3945 17.6751C19.1595 17.7717 19.0416 18.0525 19.1407 18.2875Z" fill="#192A32"/>
<path d="M19.4804 20.0284C19.2308 20.0807 19.0624 20.3278 19.1123 20.5796C19.2704 21.2028 20.1645 20.9894 20.0232 20.3623C19.9577 20.13 19.7181 19.9808 19.4804 20.0284Z" fill="#192A32"/>
<path d="M20.0051 22.6823C19.9064 22.4482 19.6341 22.3332 19.3979 22.4275C18.8384 22.6797 19.1541 23.4915 19.7371 23.3002C19.9819 23.2083 20.1049 22.9239 20.0051 22.6823Z" fill="#192A32"/>
<path d="M17.2617 18.2031C17.0028 18.2031 16.793 18.4129 16.793 18.6719V22.2981C16.8145 22.9187 17.7091 22.9182 17.7304 22.2981V18.6719C17.7304 18.413 17.5206 18.2031 17.2617 18.2031Z" fill="#192A32"/>
<path d="M12.4707 18.2031C12.2118 18.2031 12.002 18.4129 12.002 18.6719V22.2981C12.0235 22.9187 12.9181 22.9182 12.9394 22.2981V18.6719C12.9394 18.413 12.7296 18.2031 12.4707 18.2031Z" fill="#192A32"/>
<path d="M10.3541 9.31685H15.1381L15.946 10.565C16.2292 11.0025 16.9008 10.9978 17.177 10.5545L17.9485 9.31685H22.6463C23.3886 9.31685 23.9925 8.71293 23.9925 7.97064V1.34621C23.9925 0.60392 23.3886 0 22.6463 0H10.3541C9.61179 0 9.00787 0.60392 9.00787 1.34621V2.33968C9.02969 2.96179 9.92566 2.9576 9.94535 2.33968V1.34627C9.94535 1.1209 10.1287 0.937535 10.3541 0.937535H22.6463C22.8717 0.937535 23.055 1.1209 23.055 1.34627V7.9707C23.055 8.19607 22.8717 8.37944 22.6463 8.37944H17.6883C17.5265 8.37944 17.3761 8.46294 17.2905 8.60025L16.5548 9.78046L15.7865 8.5935C15.7001 8.46 15.552 8.37944 15.393 8.37944H10.354C10.1287 8.37944 9.94528 8.19607 9.94528 7.9707V4.20819C9.94528 3.94926 9.73542 3.73945 9.47655 3.73945C9.21768 3.73945 9.00781 3.94926 9.00781 4.20819V7.97064C9.00787 8.71293 9.61179 9.31685 10.3541 9.31685Z" fill="#192A32"/>
<path d="M17.5304 2.99997C18.1511 2.97847 18.1506 2.08381 17.5304 2.0625H15.7207C15.4618 2.0625 15.252 2.27231 15.252 2.53124V6.82617C15.252 7.0851 15.4618 7.29491 15.7207 7.29491H17.5304C18.1511 7.27341 18.1506 6.37875 17.5304 6.35744H16.1894V5.14747H17.397C18.0176 5.12597 18.0171 4.23131 17.397 4.21H16.1894V3.00003H17.5304V2.99997Z" fill="#192A32"/>
<path d="M13.0071 2.0235H11.748C11.4892 2.0235 11.2793 2.23331 11.2793 2.49224V6.82674C11.2793 7.10554 11.5101 7.25904 11.7501 7.29547C11.7501 7.29547 12.9079 7.29035 13.2269 7.29035C14.803 7.2866 15.4516 5.26328 14.1999 4.34112C14.8933 3.39603 14.1882 2.01232 13.0071 2.0235ZM13.0071 2.96098C13.7076 2.9876 13.7072 3.99176 13.0071 4.01826C12.7437 4.01826 12.4803 4.01963 12.2168 4.01945V2.96098H13.0071ZM13.227 6.35288C13.0422 6.35288 12.5769 6.35456 12.2168 6.35606V4.95817C12.5535 4.95686 12.8902 4.95654 13.227 4.95692C14.1519 4.99211 14.1512 6.318 13.227 6.35288Z" fill="#192A32"/>
<path d="M20.0499 7.29541C20.3088 7.29541 20.5187 7.0856 20.5187 6.82667V2.96091H21.2516C21.8723 2.93941 21.8718 2.04475 21.2516 2.02344H18.8579C18.2372 2.04494 18.2377 2.9396 18.8579 2.96091H19.5812V6.82667C19.5812 7.08554 19.7911 7.29541 20.0499 7.29541Z" fill="#192A32"/>
</g>
<defs>
<clipPath id="clip0_136_5970">
<rect width="32" height="32" fill="white" transform="translate(0.5)"/>
</clipPath>
</defs>
</svg>
