<svg width="32" height="32" viewBox="0 0 32 32" fill="none" xmlns="http://www.w3.org/2000/svg">
<path d="M5.91651 25.076C5.85468 25.1069 5.78255 25.1274 5.71041 25.148C4.64899 25.4359 3.55665 24.7984 3.26811 23.7392C2.97956 22.68 3.61848 21.5899 4.6799 21.302C5.36004 21.1169 6.06078 21.3123 6.54512 21.7648L10.121 16.6745C9.15231 16.7979 8.21455 16.1912 7.95692 15.2142C7.66838 14.155 8.30729 13.065 9.36872 12.7771C10.4301 12.4891 11.5225 13.1267 11.811 14.1859C11.8213 14.2065 11.8213 14.227 11.8316 14.2579L11.9141 14.1345C12.1099 13.8568 12.3675 13.6306 12.656 13.4661L12.3469 12.3246C12.1717 11.687 11.5225 11.3065 10.8836 11.4814L0.887627 14.155C0.248711 14.3299 -0.132577 14.9777 0.0426099 15.6153L2.72193 25.5902C2.89712 26.2278 3.54634 26.6082 4.18526 26.4334L6.66879 25.765L6.52452 25.6622C6.26689 25.5182 6.07109 25.3125 5.91651 25.076ZM1.45441 16.9624C1.16586 15.9032 1.80478 14.8132 2.86621 14.5252C3.92763 14.2373 5.01997 14.8749 5.30851 15.9341C5.59706 16.9933 4.95814 18.0833 3.89672 18.3712C2.83529 18.6489 1.74295 18.0216 1.45441 16.9624ZM22.8787 20.3559L14.3976 14.4327C13.8514 14.0522 13.1095 14.1859 12.7282 14.7309L6.79245 23.1942C6.41116 23.7392 6.54513 24.4796 7.0913 24.8601L15.5724 30.7833C16.1186 31.1638 16.8605 31.0301 17.2418 30.4851L23.1775 22.0219C23.5588 21.4768 23.4249 20.7364 22.8787 20.3559ZM10.7908 25.364C9.70879 25.5593 8.67828 24.8292 8.48248 23.7495C8.28669 22.6697 9.01835 21.6414 10.1004 21.446C11.1824 21.2506 12.2129 21.9807 12.4087 23.0605C12.5942 24.1402 11.8729 25.1686 10.7908 25.364ZM15.3354 24.5618C14.2533 24.7572 13.2228 24.0271 13.027 22.9474C12.8312 21.8676 13.5629 20.8393 14.6449 20.6439C15.727 20.4485 16.7575 21.1786 16.9533 22.2584C17.1388 23.3381 16.4174 24.3665 15.3354 24.5618ZM19.8799 23.7597C18.7979 23.9551 17.7674 23.225 17.5716 22.1452C17.3758 21.0655 18.1074 20.0372 19.1895 19.8418C20.2715 19.6464 21.302 20.3765 21.4978 21.4563C21.6833 22.536 20.962 23.5746 19.8799 23.7597ZM16.2731 12.3863C15.964 11.9955 15.4281 11.6562 14.8304 11.6562C14.511 11.6562 14.2224 11.759 13.9648 11.903L14.1091 12.448C14.5419 12.52 14.9541 12.6845 15.3251 12.9416L17.3243 14.3401H18.7361V15.2657L20.6013 16.5922V14.3401H22.8169C23.1363 14.7309 23.6413 15.0703 24.2184 15.0703C25.1767 15.0703 25.9496 14.3093 25.9496 13.3529C25.9496 12.3966 25.1767 11.5842 24.2184 11.5842C23.5898 11.5842 23.0436 11.9852 22.7344 12.376H20.6013V10.1034C20.9929 9.7846 21.2711 9.28071 21.2711 8.70484C21.2711 7.74848 20.4776 6.97723 19.5192 6.97723C18.5609 6.97723 17.8498 7.74848 17.8498 8.70484C17.8498 9.33213 18.159 9.87715 18.7464 10.1857V12.3657H16.2731V12.3863ZM28.361 4.63261C23.5073 -0.210871 15.6342 -0.210871 10.7805 4.63261C9.09048 6.31909 7.98784 8.36549 7.47258 10.525L10.3477 9.75375C10.595 9.69205 10.8527 9.65091 11.1103 9.65091C11.4916 9.65091 11.8523 9.7229 12.1923 9.85658C12.5839 9.04419 13.1095 8.2935 13.7896 7.6148C16.9842 4.42694 22.1677 4.42694 25.3725 7.6148C28.5671 10.8027 28.5671 15.9752 25.3725 19.1733C25.1458 19.3996 24.9191 19.6052 24.6718 19.8006C24.8058 20.0269 24.8985 20.2634 24.9706 20.5102C25.3004 20.2634 25.6096 19.996 25.8981 19.6978C26.2691 19.3276 26.6091 18.9163 26.908 18.4946L28.866 20.4588C28.5465 20.8701 28.2064 21.2712 27.8251 21.6414C27.4542 22.0116 27.0626 22.3612 26.6504 22.6697L25.0531 21.0758C25.0943 21.7236 24.9294 22.392 24.5275 22.9576L22.8375 25.364C24.8573 24.8189 26.7637 23.7495 28.3507 22.1658C33.2147 17.3223 33.2147 9.4761 28.361 4.63261ZM13.2537 7.10063C12.8828 7.47083 12.5427 7.87188 12.2438 8.30379L10.2756 6.33966C10.595 5.92832 10.9351 5.53755 11.3061 5.16735C11.6771 4.79715 12.079 4.44751 12.4912 4.12872L14.4594 6.09286C14.0266 6.38079 13.6247 6.72014 13.2537 7.10063ZM21.1474 4.62233C20.6322 4.52978 20.1272 4.48864 19.5914 4.48864C19.0658 4.48864 18.6433 4.52978 18.0559 4.62233V1.84581C18.6433 1.77383 19.0658 1.74298 19.5914 1.74298C20.1272 1.74298 20.6322 1.77383 21.1578 1.84581L21.1474 4.62233ZM26.8977 8.30379C26.5988 7.87188 26.2588 7.47083 25.8775 7.09035C25.5065 6.72014 25.1046 6.38079 24.6821 6.08257L26.6504 4.11844C27.0626 4.43723 27.4542 4.77658 27.8251 5.14678C28.1961 5.51698 28.5465 5.91804 28.866 6.32937L26.8977 8.30379ZM28.361 14.9263C28.4538 14.4327 28.495 13.898 28.495 13.3632C28.495 12.8285 28.4538 12.3863 28.361 11.8001H31.1434C31.2155 12.3863 31.2464 12.8388 31.2464 13.3632C31.2464 13.8877 31.2155 14.4327 31.1434 14.9263H28.361Z" fill="white"/>
</svg>
