<svg width="32" height="32" viewBox="0 0 32 32" fill="none" xmlns="http://www.w3.org/2000/svg">
<path d="M24.2953 28.6875C24.0362 28.6875 23.8262 28.8975 23.8262 29.1566V31.5438C23.8262 32.1503 24.7644 32.1503 24.7644 31.5438V29.1566C24.7644 28.8975 24.5543 28.6875 24.2953 28.6875Z" fill="#192A32"/>
<path d="M24.6216 24.4512C23.9974 23.8441 23.3116 23.3052 22.5761 22.8432C24.345 21.449 25.6318 19.5056 26.1545 17.2852C28.0685 17.5969 29.5225 15.4039 28.4044 13.7981C29.3092 9.80349 28.1045 5.42604 24.9399 2.91908C21.0649 -0.449375 13.6376 -0.922283 9.04159 1.60287C8.81242 1.72371 8.72461 2.00748 8.84551 2.23659C8.96641 2.46582 9.25018 2.55369 9.47922 2.43267C17.5905 -1.66701 29.3552 2.68404 27.5899 13.0666C27.2473 12.8841 26.8044 12.7849 26.4123 12.8035V12.0217C26.4123 9.68434 24.041 7.99298 21.8217 8.72745C18.0707 9.97342 13.9283 9.97342 10.1773 8.72745C7.96117 7.99604 5.58675 9.68515 5.58675 12.0217V12.8035C5.19465 12.7848 4.75177 12.8841 4.4092 13.0666C3.75423 9.37374 5.00933 5.55151 7.98801 3.37992C8.19434 3.22324 8.23456 2.92897 8.07795 2.72263C7.92127 2.51623 7.62699 2.47614 7.42065 2.63269C3.96319 5.16666 2.66305 9.6627 3.59492 13.7982C2.47604 15.4051 3.93279 17.5968 5.84482 17.2853C6.36751 19.5056 7.65432 21.4491 9.42324 22.8433C6.4046 24.7392 4.29637 27.9435 3.79401 31.4778C3.71101 32.0616 4.63599 32.2205 4.72287 31.6099C5.01583 29.549 5.89667 27.5889 7.23577 25.9834V31.5438C7.23577 32.1503 8.17395 32.1503 8.17395 31.5438V24.988C8.80717 24.3929 9.50593 23.8721 10.2561 23.436C10.6588 23.6939 11.0811 23.9256 11.5203 24.1285V27.2387C11.5203 28.1788 12.5416 28.4718 13.249 28.0613L14.291 31.6738C14.456 32.2464 15.3609 31.9979 15.1924 31.4138L14.1168 27.6846L14.5871 27.4805H16.9394L17.4098 27.6846L16.3342 31.4138C16.1707 31.9806 17.0659 32.2623 17.2356 31.6738L18.2775 28.0613L18.5633 28.1853C19.2292 28.4742 20.0062 27.9656 20.0062 27.2386V24.3328C20.6168 24.0863 21.198 23.7852 21.7434 23.4359C22.4935 23.872 23.1922 24.3928 23.8254 24.988V27.2161C23.8468 27.837 24.7422 27.8371 24.7636 27.2161V25.9833C26.1028 27.5889 26.9836 29.549 27.2766 31.6098C27.3603 32.1982 28.2916 32.0844 28.2055 31.4778C27.8287 28.8282 26.5559 26.3328 24.6216 24.4512ZM26.5227 13.739C27.2565 13.739 27.8533 14.3306 27.8533 15.0578C27.8533 15.8506 27.1031 16.4765 26.325 16.3622C26.4422 15.6203 26.4085 14.5072 26.4123 13.7435C26.4489 13.7406 26.4857 13.739 26.5227 13.739ZM5.47661 16.3765C4.74289 16.3765 4.14601 15.785 4.14601 15.0578C4.14601 14.3 4.83708 13.6828 5.58694 13.7436C5.59088 14.5115 5.55692 15.6164 5.67432 16.3623C5.60939 16.3717 5.54341 16.3765 5.47661 16.3765ZM6.52512 15.0578C6.52512 14.0458 6.52512 13.0338 6.52512 12.0218C6.52512 10.3152 8.27284 9.08709 9.88345 9.61841C13.8239 10.9274 18.1754 10.9274 22.1159 9.61841C23.7273 9.08671 25.4742 10.313 25.4742 12.0218V15.0578C25.0044 27.1253 6.99328 27.1221 6.52512 15.0578ZM16.5676 26.5423H14.9587V25.0567C15.4915 25.108 16.0331 25.1196 16.5676 25.0917V26.5423ZM12.5896 27.3247C12.5149 27.3432 12.4712 27.3146 12.4584 27.2387V24.5082C12.9623 24.6845 13.4841 24.8245 14.0205 24.9245V26.7036C13.5435 26.9107 13.0666 27.1177 12.5896 27.3247ZM19.068 27.2387C19.0552 27.3145 19.0115 27.3432 18.9368 27.3247C18.4598 27.1177 17.9829 26.9106 17.5059 26.7036V25.0016C18.0407 24.9265 18.5625 24.8121 19.068 24.6613V27.2387H19.068Z" fill="#192A32"/>
<path d="M18.4704 18.9886C18.4485 18.3675 17.5539 18.3678 17.5322 18.9886C17.5322 19.8336 16.8448 20.521 15.9999 20.521C15.1549 20.521 14.4675 19.8336 14.4675 18.9886C14.4675 18.7296 14.2575 18.5195 13.9984 18.5195C13.7393 18.5195 13.5293 18.7296 13.5293 18.9886C13.6536 22.262 18.3468 22.2605 18.4704 18.9886Z" fill="#192A32"/>
</svg>
