<svg xmlns="http://www.w3.org/2000/svg" width="48" height="48" xmlns:v="https://vecta.io/nano"><path d="M23.996.82c12.797 0 23.176 10.375 23.176 23.176S36.793 47.172 23.996 47.172.82 36.793.82 23.996 11.195.82 23.996.82zm0 0" fill="rgb(5.098039%,5.098039%,33.333334%)"/><path d="M32.762 14.512H18.82c-.469 0-.582.109-.582.566v.133c0 .348 0 .348.34.438A9.47 9.47 0 0 1 22.828 18c2.23 2.09 3.352 5.102 3.035 8.137a9.76 9.76 0 0 1-4.652 7.332c-.832.523-1.738.902-2.691 1.133-.211 0-.301.137-.289.359v.918a.43.43 0 0 0 .121.332.42.42 0 0 0 .328.129h7.422l1.699-8h3.438c5.523 0 9.07-2.84 9.07-7.551.012-3.91-3-6.277-7.547-6.277zm-1.621 9.68h-2.449l1.18-5.562h1.949c1.738 0 2.621.82 2.621 2.41 0 1.961-1.203 3.152-3.301 3.152zm0 0" fill="rgb(100%,100%,100%)"/><path d="M16.121 16.672a8.46 8.46 0 0 0-8.441 8.477 8.46 8.46 0 0 0 8.473 8.441c4.672-.008 8.453-3.797 8.449-8.469-.004-2.246-.898-4.398-2.488-5.984a8.45 8.45 0 0 0-5.992-2.465zm3.5 3.18h2.18a.42.42 0 0 1 .348.168c.633.746 1.125 1.602 1.453 2.52.063.121.063.262 0 .383l-1.062 1.859-2.848.18c-.16.023-.312-.059-.383-.199l-1.238-2.152c-.086-.121-.086-.285 0-.41l1.258-2.168zm-6.312-.422c.352-.59.703-1.191 1-1.801.07-.141.207-.238.363-.258a7.93 7.93 0 0 1 2.848 0c.156.02.289.109.359.25l1 1.801a.38.38 0 0 1 0 .457l-1.23 2.133a.36.36 0 0 1-.359.199h-1.25-1.199c-.168.02-.336-.066-.41-.223-.391-.707-.801-1.41-1.211-2.098-.074-.156-.039-.344.09-.461zm-4.617 3.109c.316-.93.805-1.789 1.438-2.539a.42.42 0 0 1 .352-.172h2.141A.33.33 0 0 1 13 20l1.25 2.18c.082.113.082.266 0 .379l-1.262 2.172-1.66.191h-1.187a.38.38 0 0 1-.379-.211l-1-1.77a.44.44 0 0 1-.07-.402zm3.887 7.91h-1-1a.42.42 0 0 1-.406-.18c-.645-.746-1.141-1.602-1.473-2.531a.48.48 0 0 1 0-.437c.34-.582.691-1.16 1-1.742.066-.145.223-.23.379-.207h2.453c.172-.023.336.078.398.238l1.211 2.102c.09.129.09.301 0 .43a82.64 82.64 0 0 0-1.23 2.117c-.066.125-.191.203-.332.211zm6.402.371l-1.051 1.828c-.066.121-.184.199-.32.223a7.74 7.74 0 0 1-2.937 0 .48.48 0 0 1-.344-.242c-.324-.598-.656-1.187-1-1.77a.39.39 0 0 1 0-.437c.422-.703.82-1.41 1.223-2.121a.36.36 0 0 1 .371-.223h1.27 1.219c.137-.012.266.063.328.184l1.273 2.207zm4.598-3.082a7.79 7.79 0 0 1-1.437 2.5c-.109.141-.281.219-.461.211h-2c-.145.016-.285-.059-.352-.187-.398-.73-.816-1.453-1.25-2.16-.09-.121-.09-.285 0-.402l1.242-2.148c.055-.141.199-.227.352-.199h1.258 1.199c.168-.027.332.063.402.219l1 1.77c.086.113.105.266.047.398zm0 0" fill="rgb(11.764706%,56.470591%,100%)"/></svg>