<svg width="33" height="32" viewBox="0 0 33 32" fill="none" xmlns="http://www.w3.org/2000/svg">
<path d="M28.8591 24.7395C26.8515 24.7395 25.2183 26.3733 25.2183 28.3816C25.4013 33.2068 32.3178 33.2055 32.5001 28.3816C32.5001 26.3733 30.8668 24.7395 28.8591 24.7395ZM28.8591 31.0856C27.3687 31.0856 26.1561 29.8726 26.1561 28.3816C26.2921 24.7994 31.4269 24.8004 31.5622 28.3817C31.5622 29.8726 30.3496 31.0856 28.8591 31.0856Z" fill="#192A32"/>
<path d="M28.859 26.3989C27.7661 26.3989 26.877 27.2884 26.877 28.3816C26.9766 31.0085 30.7418 31.0077 30.841 28.3816C30.8411 27.2884 29.9519 26.3989 28.859 26.3989ZM28.859 29.4262C28.2832 29.4262 27.8148 28.9576 27.8148 28.3816C27.8673 26.9978 29.8509 26.9982 29.9032 28.3816C29.9032 28.9577 29.4348 29.4262 28.859 29.4262Z" fill="#192A32"/>
<path d="M28.4242 23.295C29.6758 23.295 30.6941 22.2763 30.6941 21.0243V10.9995C30.6941 9.74741 29.6758 8.72878 28.4242 8.72878H27.9309C28.1124 7.72466 27.8613 6.67038 27.2355 5.86453C27.0778 5.65913 26.7833 5.62054 26.5779 5.77847C26.3725 5.93634 26.334 6.23087 26.4918 6.43627C26.9915 7.0775 27.168 7.94014 26.9725 8.72878H26.22C26.6768 7.47654 25.6827 6.07575 24.3471 6.09952C23.0118 6.07569 22.0171 7.47673 22.4742 8.72878H21.7218C21.1963 6.65831 23.2627 4.79818 25.2649 5.53792C25.5085 5.62586 25.7772 5.49964 25.8652 5.2559C25.9531 5.01222 25.8268 4.74339 25.5832 4.65545C22.9947 3.68661 20.2415 6.01314 20.7635 8.72878H7.37449C7.60358 8.27901 7.74201 7.77564 7.76546 7.24293C12.1641 6.46004 11.7021 0.121027 7.21455 0C5.26128 0 3.66227 1.54671 3.57723 3.48014C0.13105 4.02448 -0.64751 8.63903 2.40664 10.2894C2.3318 10.5172 2.29316 10.7567 2.29316 10.9995V21.0243C2.29316 22.2763 3.31144 23.295 4.56306 23.295H6.52522C6.7842 23.295 6.99415 23.0849 6.99415 22.8259C6.99415 22.5668 6.7842 22.3568 6.52522 22.3568H4.563C3.82852 22.3568 3.23097 21.759 3.23097 21.0243V10.9995C3.23097 10.8716 3.24923 10.7453 3.28462 10.6242C4.49003 10.929 5.85883 10.5189 6.68922 9.66698H28.4241C29.1586 9.66698 29.7561 10.2647 29.7561 10.9995V21.0243C29.7561 21.759 29.1586 22.3568 28.4241 22.3568H17.1174C15.7149 20.4562 12.7301 20.457 11.3283 22.3568H8.38627C8.12729 22.3568 7.91733 22.5668 7.91733 22.8259C7.91733 23.0849 8.12729 23.295 8.38627 23.295H10.8099C9.90775 25.6144 11.7268 28.2429 14.2229 28.2059C16.7184 28.243 18.5385 25.614 17.6359 23.295H28.4242ZM23.303 8.08224C23.303 7.50631 23.7713 7.03772 24.3471 7.03772C25.2069 7.02683 25.7079 8.06241 25.1662 8.72884H23.528C23.3835 8.54552 23.303 8.31741 23.303 8.08224ZM6.17039 3.64214C6.22297 2.25811 8.20651 2.2588 8.25872 3.64214C8.25872 4.37362 7.45634 4.89832 6.78701 4.59503C6.64195 4.43985 6.48351 4.29731 6.31351 4.16934C6.21991 4.00997 6.17039 3.82821 6.17039 3.64214ZM7.21462 0.938195C10.5119 1.02407 10.8972 5.66195 7.68599 6.30524C7.63341 6.06368 7.55682 5.83101 7.45884 5.60991C9.89556 5.2407 9.69316 1.73172 7.21455 1.65942C6.13244 1.65942 5.25015 2.53138 5.23283 3.60986C5.00342 3.53662 4.7642 3.48558 4.51773 3.45925C4.61208 2.05321 5.78561 0.938195 7.21462 0.938195ZM4.12814 9.78463C2.63767 9.78463 1.42513 8.5716 1.42513 7.08069C1.56099 3.49847 6.69585 3.49941 6.83115 7.08075C6.83115 8.57167 5.61861 9.78463 4.12814 9.78463ZM14.2228 27.2677C12.7324 27.2677 11.5198 26.0547 11.5198 24.5638C11.6558 20.9815 16.7906 20.9825 16.9259 24.5638C16.9259 26.0547 15.7132 27.2677 14.2228 27.2677Z" fill="#192A32"/>
<path d="M19.2068 12.2245C19.0109 12.2856 18.8774 12.467 18.8774 12.6723V19.364C18.8989 19.9852 19.794 19.9847 19.8153 19.364V14.1771L23.4835 19.4906C23.6359 19.7109 23.8841 19.8063 24.1164 19.734C24.3565 19.659 24.5116 19.4251 24.5116 19.1335L24.449 12.6552C24.4466 12.3961 24.2339 12.188 23.9755 12.1907C23.7165 12.1932 23.5086 12.4052 23.5111 12.6643L23.5622 17.9538L19.7322 12.4057C19.6157 12.2368 19.403 12.1635 19.2068 12.2245Z" fill="#192A32"/>
<path d="M16.8084 19.364V12.6598C16.7868 12.0387 15.8914 12.0391 15.8701 12.6598V19.364C15.8917 19.9851 16.787 19.9846 16.8084 19.364Z" fill="#192A32"/>
<path d="M7.52406 19.8332C7.76303 19.8316 8.03776 19.636 8.1111 19.4002L9.7028 14.2559L11.2874 19.4015C11.4664 19.9862 12.358 19.9686 12.4813 19.3531L13.7922 12.7637C13.8428 12.5097 13.6778 12.2627 13.4238 12.2121C13.1697 12.1615 12.923 12.3265 12.8724 12.5806L11.811 17.9152L10.15 12.5217C10.0738 12.2742 9.81121 12.1353 9.56387 12.2116C9.38986 12.2652 9.26956 12.4109 9.23999 12.5787L7.58877 17.9152L6.5316 12.5688C6.48133 12.3147 6.23479 12.1494 5.98057 12.1997C5.72653 12.25 5.56128 12.4968 5.61155 12.7509L6.91731 19.3545C6.97177 19.6297 7.24388 19.8392 7.52406 19.8332Z" fill="#192A32"/>
<path d="M26.9159 12.1907C26.6567 12.1907 26.4468 12.4007 26.4468 12.6598V17.8495C26.4683 18.4706 27.3636 18.4701 27.385 17.8495V12.6598C27.385 12.4007 27.175 12.1907 26.9159 12.1907Z" fill="#192A32"/>
<path d="M26.8245 18.9041C26.5745 18.9563 26.4061 19.2038 26.4561 19.4558C26.6152 20.0801 27.5085 19.8663 27.3678 19.2381C27.3024 19.0057 27.062 18.8564 26.8245 18.9041Z" fill="#192A32"/>
<path d="M14.2232 22.5811C13.1304 22.5811 12.2412 23.4705 12.2412 24.5638C12.3409 27.1906 16.1061 27.1898 16.2053 24.5638C16.2053 23.4705 15.3161 22.5811 14.2232 22.5811ZM14.2232 25.6084C13.6475 25.6084 13.1791 25.1398 13.1791 24.5638C13.2315 23.18 15.2151 23.1804 15.2674 24.5638C15.2674 25.1398 14.799 25.6084 14.2232 25.6084Z" fill="#192A32"/>
<path d="M4.12859 5.0979C3.03565 5.0979 2.14648 5.98737 2.14648 7.08062C2.24615 9.70738 6.0114 9.70669 6.11062 7.08062C6.11069 5.98737 5.22152 5.0979 4.12859 5.0979ZM4.12859 8.12514C3.55279 8.12514 3.08436 7.65655 3.08436 7.08062C3.13682 5.69684 5.12048 5.69716 5.17275 7.08062C5.17281 7.65661 4.70438 8.12514 4.12859 8.12514Z" fill="#192A32"/>
<path d="M12.0868 6.99459C12.1887 7.23564 12.4737 7.34991 12.7131 7.24215C13.259 6.96919 12.9134 6.17129 12.3408 6.38226C12.1054 6.47952 11.987 6.75866 12.0868 6.99459Z" fill="#192A32"/>
<path d="M15.9065 1.50353C16.0013 1.74033 16.2847 1.85497 16.5188 1.75747C17.0808 1.49352 16.7439 0.679479 16.1598 0.891198C15.9248 0.988645 15.8072 1.26829 15.9065 1.50353Z" fill="#192A32"/>
<path d="M19.0864 3.40312C19.3014 3.54467 19.6008 3.48556 19.7405 3.26752C20.0499 2.73869 19.3296 2.25934 18.9606 2.74664C18.8148 2.95842 18.8705 3.26096 19.0864 3.40312Z" fill="#192A32"/>
<path d="M29.6008 5.87701C29.7 6.11231 29.9767 6.22959 30.2138 6.13095C30.7753 5.867 30.4385 5.05315 29.8548 5.26468C29.62 5.36169 29.5012 5.64152 29.6008 5.87701Z" fill="#192A32"/>
<path d="M23.2425 25.0292C23.1433 24.7933 22.8667 24.6776 22.6296 24.7757C22.0747 25.0338 22.3947 25.8396 22.9753 25.6471C23.2211 25.5536 23.3394 25.2715 23.2425 25.0292Z" fill="#192A32"/>
<path d="M19.7799 29.4989C19.6865 29.2733 19.4269 29.1561 19.1959 29.234C18.6078 29.4664 18.9123 30.3112 19.5129 30.1167C19.7552 30.0247 19.8815 29.7392 19.7799 29.4989Z" fill="#192A32"/>
<path d="M3.19575 25.0291C3.09667 24.7949 2.82466 24.6789 2.58792 24.7735C2.03633 25.019 2.3348 25.8253 2.91329 25.6523C3.16479 25.5665 3.29989 25.2757 3.19575 25.0291Z" fill="#192A32"/>
<path d="M7.734 27.9039C7.63461 27.6684 7.35841 27.5522 7.12105 27.65C6.55957 27.9129 6.89632 28.7282 7.48006 28.5169C7.71805 28.4188 7.82876 28.1407 7.734 27.9039Z" fill="#192A32"/>
</svg>
