<svg xmlns="http://www.w3.org/2000/svg" width="200" height="30" xmlns:v="https://vecta.io/nano"><path d="M69 1.078H58.84C55.262 8.07 48 23.609 45.191 29.23h7.719l2.648-5.801h7.652l.328 5.801H71zM57.922 17.551c1.887-4.129 3.609-8.18 4.828-11.43h.172c-.051 2.898.137 7.199.34 11.43zM79.801 1.078l-6 28.152h7.559l6-28.152zm23.199 0h-9.922l-6 28.152H99.48c10.418 0 15.238-7.93 15.238-16.531 0-6.43-3.867-11.621-11.719-11.621zM99.238 23.84H95.82l3.691-17.32h2.379c2.848 0 4.91 1.691 4.91 5.859 0 4.68-2.07 11.461-7.562 11.461zM40.301 1.078h-18c-.602 0-.742.141-.75.742V2c0 .461 0 .461.438.57a12.13 12.13 0 0 1 5.48 3c3.059 2.781 4.504 6.918 3.84 11-.496 3.73-2.68 7.023-5.918 8.941A11.82 11.82 0 0 1 22 26.999a.4.4 0 0 0-.289.152c-.07.09-.102.207-.082.316v1.18c-.008.16.051.313.16.43a.55.55 0 0 0 .422.172h9.559l2.199-10.371h4.422c7.121 0 11.699-3.66 11.699-9.73-.039-5.008-3.93-8.07-9.789-8.07zm-2.082 12.48h-3.168l1.527-7.18h2.512c2.238 0 3.371 1.07 3.371 3.121 0 2.551-1.539 4.059-4.242 4.059zm0 0" fill="rgb(5.098039%,5.098039%,33.333334%)"/><path d="M18.852 3.871C12.84 3.891 7.984 8.781 8 14.789a10.891 10.891 0 1 0 21.781-.039 10.9 10.9 0 0 0-10.93-10.879zM23.371 8h2.801a.55.55 0 0 1 .449.219c.816.961 1.449 2.063 1.867 3.25a.5.5 0 0 1 0 .492l-1.379 2.391a.41.41 0 0 1-.418.238H25.07h-1.582a.47.47 0 0 1-.488-.27 103.65 103.65 0 0 0-1.602-2.77c-.109-.156-.109-.363 0-.52l1.622-2.8c.063-.137.199-.227.352-.23zm-8.141-.539l1.348-2.32A.6.6 0 0 1 17 4.762a10.16 10.16 0 0 1 3.672 0 .63.63 0 0 1 .469.328 64.98 64.98 0 0 0 1.34 2.32.51.51 0 0 1 0 .59l-1.59 2.738c-.082.18-.266.285-.461.262h-3.11a.49.49 0 0 1-.52-.289c-.512-.902-1-1.801-1.57-2.699-.121-.18-.121-.414 0-.59zm-6 4a10.43 10.43 0 0 1 1.859-3.262c.121-.148.309-.223.5-.199h2.762c.176-.012.344.086.418.25l1.621 2.801a.44.44 0 0 1 0 .488l-1.621 2.813c-.074.16-.242.254-.418.238h-1.66-1.543c-.199.023-.395-.086-.477-.27l-1.312-2.289a.6.6 0 0 1-.078-.602zm5 10.187h-1.34-1.191c-.203.02-.402-.066-.527-.227-.816-.961-1.453-2.059-1.883-3.242a.66.66 0 0 1 .063-.578l1.297-2.242a.5.5 0 0 1 .48-.281h3.172a.52.52 0 0 1 .508.313c.512.91 1 1.809 1.563 2.711a.47.47 0 0 1 0 .547 111.37 111.37 0 0 0-1.59 2.742c-.102.164-.289.254-.48.23zm8.25.48l-1.359 2.352c-.082.156-.234.266-.41.289a9.82 9.82 0 0 1-3.789 0c-.191-.031-.355-.148-.441-.32l-1.32-2.277c-.117-.168-.117-.387 0-.551l1.578-2.75c.09-.184.277-.297.48-.281h1.621 1.66c.176-.02.34.074.422.23l1.637 2.852c.074.133.07.297-.008.43zm5.93-4a10.6 10.6 0 0 1-1.871 3.211c-.141.18-.359.281-.59.27h-2.598a.45.45 0 0 1-.453-.25l-1.609-2.781c-.109-.152-.109-.355 0-.508a110.83 110.83 0 0 0 1.602-2.781c.082-.176.266-.277.461-.258h1.617 1.543c.219-.023.43.09.527.289a70.47 70.47 0 0 0 1.313 2.289.55.55 0 0 1 .129.531zM138 7.699c0-3.258-1.922-5.871-5.898-6.801a14.22 14.22 0 0 0-2.66-.348h-.852H110a11.32 11.32 0 0 1 6.672 6.559s0 .09.047.141c.43 1.145.711 2.344.832 3.559v.281.398.383.379.328.363a19.33 19.33 0 0 1-4 12c-.312.367-.629.73-1 1.059A14.61 14.61 0 0 1 107 29.469h18.73c6.781-.078 11.078-4.078 11.078-9.289.027-2.375-1.285-4.566-3.387-5.668l-.281-.152c2.934-.875 4.922-3.598 4.859-6.66zm-14.121 16.652h-3.32l1.582-7.531h2.781c2.539 0 3.867 1 3.867 3.301 0 2.879-2.098 4.23-4.91 4.23zm2.281-12.543h-3l1.309-6.129h2.59c1.902 0 3.203.711 3.203 2.66.047 2.301-1.363 3.469-4.102 3.469zm16.488 2.704l-3.168 14.957h20.41l1.988-5.797H148.18l1.301-6.133h11.609l.641-3.027.59-2.82h-11.609l1.141-5.32h12.078l1.25-5.84h-19.559zM169.738.531l-1.238 5.84h7.25l-1.73 8.141-3.18 14.957h7.82l3.168-14.957 1.73-8.141h7.223l1.238-5.84zm0 0" fill="rgb(11.764706%,56.470591%,100%)"/></svg>