<svg width="33" height="32" viewBox="0 0 33 32" fill="none" xmlns="http://www.w3.org/2000/svg">
<path d="M32.4017 15.6614C33.4646 8.3375 25.7037 2.4305 18.9151 5.45778C16.9172 1.27619 11.8357 -0.979566 7.39073 0.410111C7.14194 0.484232 7.00059 0.745406 7.07493 0.993392C7.14927 1.2415 7.41123 1.38281 7.66002 1.30825C7.9174 1.2315 8.17822 1.16682 8.44162 1.11414V3.3767C7.90599 3.52313 7.39744 3.73568 6.92537 4.00492L5.3191 2.40488C5.53643 2.26076 5.76133 2.12552 5.99345 1.99971C6.53009 1.68436 6.10114 0.898585 5.54445 1.17601C-1.47285 4.95381 -1.08472 15.2875 6.18363 18.5411C3.40418 24.7254 8.34534 32.0854 15.1221 31.9993C18.7391 31.9993 22.1448 29.9352 23.7983 26.7223C23.9169 26.492 23.8257 26.2096 23.5947 26.0913C23.3638 25.9731 23.0803 26.064 22.9618 26.2944C22.8094 26.5904 22.6403 26.8771 22.4551 27.1536L20.8529 25.5585C21.1272 25.0809 21.339 24.5715 21.4839 24.0402L23.753 24.0395C23.7065 24.2688 23.6506 24.4972 23.5851 24.7244C23.5133 24.9732 23.6575 25.2329 23.907 25.3044C24.1566 25.376 24.417 25.2322 24.4887 24.9834C24.5965 24.6095 24.6809 24.2325 24.7424 23.8542C28.5839 23.0635 32.065 19.6743 32.4017 15.6614ZM30.0871 19.2094L28.4807 17.6091C28.7518 17.135 28.9647 16.6254 29.1112 16.0905H31.3785C31.152 17.2205 30.7078 18.2765 30.0871 19.2094ZM25.7948 19.1011C25.3997 19.3516 24.9693 19.5554 24.5101 19.7038C24.4247 19.3984 24.3243 19.0972 24.209 18.8012C26.1141 18.1862 27.4497 16.3931 27.4497 14.3593C27.4796 10.4844 22.8477 8.26913 19.8433 10.7214C19.8843 10.3276 19.9013 9.92736 19.8945 9.53113C26.2366 6.13225 31.867 14.5971 25.7948 19.1011ZM19.1223 26.2823C16.9567 28.4384 13.3197 28.4517 11.1491 26.2906C8.97167 24.1998 8.98026 20.4422 11.1574 18.3542C13.3217 16.1995 16.9638 16.1887 19.1305 18.3458C21.2982 20.5041 21.2882 24.1258 19.1223 26.2823ZM18.3935 28.0055L19.9957 29.6007C19.0308 30.2399 17.9664 30.6695 16.868 30.8894L16.8686 28.6332C17.3958 28.4902 17.9086 28.2809 18.3935 28.0055ZM13.3948 28.635L13.3942 30.893C12.2967 30.6754 11.2334 30.2482 10.27 29.6112L11.8766 28.0117C12.3593 28.2853 12.8698 28.4931 13.3948 28.635ZM6.52156 24.0569L8.79397 24.0562C8.93789 24.5853 9.14819 25.0926 9.42061 25.568L7.81341 27.1682C7.18124 26.2241 6.74371 25.1704 6.52156 24.0569ZM7.82394 17.4821L9.42682 19.078C9.15251 19.5555 8.94071 20.0651 8.79578 20.5963L6.52507 20.5969C6.74948 19.4825 7.18927 18.4277 7.82394 17.4821ZM7.15491 14.4424C5.62813 13.1753 4.54565 11.8001 4.54565 9.70018C4.54565 6.64628 7.11248 4.0821 10.1773 4.0821C14.4774 4.04836 17.3024 9.00466 14.9753 12.6388C14.5562 12.6466 14.1373 12.6811 13.7226 12.7422C16.3224 9.80199 14.1473 4.99956 10.1772 5.03293C4.30093 5.20698 3.85926 13.513 9.64157 14.3371C9.30039 14.5706 8.97092 14.8283 8.65556 15.11C8.11498 14.9588 7.61131 14.7318 7.15491 14.4424ZM1.39893 9.70018C1.39893 9.43357 1.41103 9.16877 1.43491 8.90647H3.65335C3.5896 9.42551 3.5896 9.97435 3.65335 10.494H1.43441C1.41084 10.2313 1.39893 9.96648 1.39893 9.70018ZM2.86491 4.85356L4.47005 6.45248C4.19907 6.92452 3.9852 7.43318 3.83801 7.96902H1.57163C1.7976 6.84933 2.23971 5.79245 2.86491 4.85356ZM18.7834 7.96902H16.5167C16.3695 7.43324 16.1557 6.92464 15.8847 6.45267L17.4873 4.85619C18.1077 5.78483 18.5551 6.83783 18.7834 7.96902ZM22.9127 16.4804C22.0068 15.1723 20.5815 14.1241 19.138 13.4807C19.539 11.8336 21.0728 10.6296 22.7713 10.6296C27.0867 10.7186 27.9178 16.6514 23.8237 17.9388C23.5658 17.4298 23.2615 16.9414 22.9127 16.4804ZM19.7951 17.6825C19.6049 17.4932 19.406 17.318 19.1994 17.1568L20.7718 15.5915C21.1807 15.9309 21.5545 16.3045 21.8963 16.7109L20.324 18.2763C20.161 18.0696 19.9845 17.8712 19.7951 17.6825ZM16.885 16.0015L16.8855 13.7435C17.9831 13.9611 19.0464 14.3884 20.0097 15.0253L18.4032 16.6248C17.9204 16.3512 17.4099 16.1435 16.885 16.0015ZM14.3514 15.8199L14.3519 13.6105C14.8819 13.5624 15.4154 13.5619 15.9453 13.6089L15.9447 15.819C15.4159 15.7556 14.8805 15.7559 14.3514 15.8199ZM11.8862 16.6309L10.284 15.0357C11.249 14.3964 12.3133 13.9668 13.4117 13.7469L13.4112 16.0032C12.8839 16.1462 12.3711 16.3555 11.8862 16.6309ZM6.3898 21.5344L8.61256 21.5337C8.54944 22.0544 8.54906 22.5981 8.61174 23.1188L6.38817 23.1194C6.34078 22.5922 6.34134 22.0617 6.3898 21.5344ZM9.96239 18.2864L8.39442 16.7252C8.73579 16.318 9.11346 15.942 9.52241 15.6023L11.0904 17.1635C10.8833 17.3252 10.6838 17.501 10.4931 17.6908C10.3029 17.8801 10.1259 18.079 9.96239 18.2864ZM10.1773 13.43C8.11611 13.43 6.43919 11.7568 6.43919 9.70012C6.62718 4.75882 13.7282 4.76019 13.9155 9.70018C13.9155 11.7568 12.2386 13.43 10.1773 13.43ZM18.9557 9.70018C18.9557 9.96698 18.944 10.2317 18.9206 10.494H16.7012C16.7652 9.97204 16.765 9.42651 16.7013 8.90647H18.9199C18.9436 9.1679 18.9557 9.43263 18.9557 9.70018ZM16.5165 11.4314H18.7854C18.7224 11.7456 18.642 12.0557 18.5442 12.361C18.4271 12.6066 18.3315 12.8624 18.259 13.1256C18.2691 13.1019 16.3483 12.7042 16.0323 12.676C16.2366 12.2777 16.3985 11.8608 16.5165 11.4314ZM16.9188 4.09723L15.3497 5.6604C15.0213 5.24279 14.6431 4.86588 14.2243 4.53846L15.7937 2.97485C16.2017 3.31446 16.5784 3.69025 16.9188 4.09723ZM13.4294 4.00498C12.9573 3.73568 12.4487 3.52313 11.913 3.3767V1.11501C13.0467 1.34275 14.102 1.78898 15.0327 2.40769L13.4294 4.00498ZM20.859 19.0684L22.4642 17.4703C23.0962 18.4187 23.5317 19.4763 23.7545 20.5796L21.4857 20.5803C21.3418 20.0512 21.1315 19.5439 20.859 19.0684ZM31.3774 12.6281H29.1106C28.9635 12.0923 28.7497 11.5837 28.4787 11.1118L30.0812 9.51525C30.7017 10.444 31.1491 11.4969 31.3774 12.6281ZM29.5128 8.75636L27.9437 10.3195C27.6152 9.90192 27.237 9.525 26.8182 9.19752L28.3877 7.63398C28.7957 7.97365 29.1723 8.34938 29.5128 8.75636ZM26.0234 8.66411C25.5513 8.39481 25.0427 8.18226 24.507 8.03583V5.7742C25.6407 6.00194 26.696 6.44817 27.6267 7.06688L26.0234 8.66411ZM27.9466 18.4023L29.5153 19.9648C29.1748 20.372 28.7983 20.7476 28.3902 21.0871L26.8213 19.5244C27.242 19.1962 27.6196 18.8189 27.9466 18.4023ZM29.2953 15.1531C29.3591 14.6335 29.3591 14.0846 29.2953 13.5656H31.5139C31.5616 14.0873 31.5615 14.6311 31.5142 15.1531H29.2953ZM23.5668 5.6379V7.85153C23.0456 7.78803 22.4988 7.78785 21.9759 7.85165V5.63721C22.4998 5.59059 23.0436 5.5904 23.5668 5.6379ZM21.0356 5.77201V8.03589C20.6174 8.1502 20.2111 8.30601 19.822 8.50162C19.7279 7.74379 19.5458 7.01276 19.2863 6.31911C19.8518 6.07431 20.4361 5.89163 21.0356 5.77201ZM9.38187 0.978581C9.90748 0.931208 10.4488 0.931271 10.9728 0.978706V3.1924C10.4531 3.12884 9.90158 3.1289 9.38187 3.1924V0.978581ZM4.5575 2.97135L6.13054 4.53827C5.71169 4.86569 5.33358 5.24267 5.00506 5.66027L3.43251 4.09385C3.77075 3.68875 4.14692 3.31271 4.5575 2.97135ZM1.57012 11.4314H3.83758C3.984 11.9661 4.19688 12.4757 4.46805 12.9496L2.86479 14.5469C2.2293 13.595 1.79259 12.54 1.57012 11.4314ZM3.4327 15.3064L5.00217 13.7429C5.32919 14.1596 5.7068 14.5369 6.12741 14.8651L4.55693 16.4296C4.15049 16.0913 3.77433 15.7157 3.4327 15.3064ZM5.31829 16.9963L6.92317 15.3974C7.23509 15.5746 7.56399 15.7275 7.90774 15.8534C7.39418 16.4214 6.95464 17.0399 6.59409 17.6971C6.14803 17.4983 5.72165 17.2637 5.31829 16.9963ZM8.38295 27.926L9.95574 26.3601C10.1187 26.5669 10.2952 26.7652 10.4847 26.9539C10.6748 27.1432 10.8738 27.3184 11.0803 27.4796L9.50781 29.0452C9.10419 28.7106 8.72025 28.3282 8.38295 27.926ZM14.3344 31.0275L14.335 28.8174C14.864 28.8809 15.3994 28.8805 15.9284 28.8165L15.9278 31.0259C15.3978 31.074 14.8644 31.0746 14.3344 31.0275ZM21.8857 27.9116C21.7157 28.1141 21.5362 28.3097 21.3474 28.4977C21.1571 28.6871 20.9603 28.866 20.7576 29.0343L19.1893 27.4729C19.3964 27.3112 19.596 27.1354 19.7867 26.9456C19.9768 26.7563 20.1538 26.5574 20.3173 26.35L21.8857 27.9116ZM21.6672 23.1027C21.7303 22.5821 21.7307 22.0384 21.668 21.5177L23.8913 21.517C23.9389 22.0414 23.9393 22.5719 23.8907 23.102L21.6672 23.1027ZM24.7802 21.0125C24.7625 20.8817 24.7421 20.7512 24.7191 20.6211C25.1804 20.4785 25.6175 20.2884 26.0254 20.0568L27.6334 21.6586C26.8006 22.2103 25.8635 22.6255 24.8508 22.8697C24.8873 22.2468 24.863 21.6249 24.7802 21.0125Z" fill="#192A32"/>
<path d="M18.4563 19.0189C16.6516 17.222 13.6322 17.2328 11.83 19.0272C10.0296 20.8196 10.0188 23.8227 11.8216 25.6176C13.6249 27.4131 16.6474 27.4022 18.4479 25.6093C20.2482 23.8169 20.259 20.8138 18.4563 19.0189ZM17.7835 24.9461C16.3428 26.3805 13.9294 26.3914 12.486 24.9544C11.0486 23.5231 11.059 21.1196 12.4944 19.6905C16.1837 16.3754 21.1149 21.2641 17.7835 24.9461Z" fill="#192A32"/>
</svg>
