<svg width="32" height="32" viewBox="0 0 32 32" fill="none" xmlns="http://www.w3.org/2000/svg">
<path d="M31.7319 10.4291L21.4596 5.56344C21.2256 5.45275 20.9461 5.55244 20.8353 5.78644L18.4936 10.7303V2.34375C18.4936 1.05138 17.4422 0 16.1498 0H2.34375C1.05138 0 0 1.05138 0 2.34375V3.47919C0 3.73806 0.209813 3.94794 0.46875 3.94794C0.727688 3.94794 0.9375 3.73806 0.9375 3.47919V2.34375C0.9375 1.56831 1.56838 0.9375 2.34375 0.9375H4.88975L5.96956 2.33956C6.29269 2.75913 6.80169 3.00963 7.33125 3.00963H11.1651C11.6953 3.00963 12.2049 2.75856 12.5281 2.338L13.604 0.9375H16.1498C16.9251 0.9375 17.556 1.56831 17.556 2.34375V12.4583H0.9375V5.1875C0.9375 4.92863 0.727688 4.71875 0.46875 4.71875C0.209813 4.71875 0 4.92863 0 5.1875V29.6563C0 30.9486 1.05138 32 2.34375 32H16.1498C17.4421 32 18.4935 30.9486 18.4935 29.6563V27.6825L22.6313 29.6424C22.8548 29.7481 23.1441 29.6548 23.2556 29.4194L25.0549 25.6207C25.1657 25.3868 25.0659 25.1073 24.832 24.9964C24.5981 24.8857 24.3185 24.9854 24.2077 25.2194L22.6091 28.5945L18.4935 26.6451V25.8493L20.5246 26.8114C20.6908 26.8853 20.8524 26.8684 21.0092 26.7607C21.5113 26.3784 22.1068 26.1608 22.7313 26.1313C22.9043 26.1231 23.0586 26.0203 23.1328 25.8638L29.1259 13.2108C29.2001 13.0543 29.1819 12.8697 29.0786 12.7306C28.7058 12.2288 28.4969 11.6303 28.4746 10.9996C28.4684 10.8245 28.3651 10.6675 28.2068 10.5925L23.5664 8.3945C23.4081 8.31956 23.2211 8.33912 23.0818 8.44519C22.5797 8.82744 21.9841 9.04506 21.3596 9.07456C21.1866 9.08275 21.0323 9.18563 20.9581 9.34213L18.4935 14.5454V12.9204L21.4818 6.61138L30.9069 11.0756L24.9289 23.6966C24.8182 23.9306 24.9179 24.21 25.1519 24.3209C25.3719 24.425 25.6711 24.3196 25.7762 24.0979L31.9548 11.0533C32.0657 10.8194 31.9659 10.5399 31.7319 10.4291ZM11.7847 1.76675C11.6378 1.95794 11.4061 2.07206 11.1651 2.07206H7.33131C7.09063 2.07206 6.85925 1.95819 6.71244 1.7675L6.07313 0.9375H12.4218L11.7847 1.76675ZM17.556 13.3957V20.5869H0.9375V13.3957H17.556ZM16.1498 31.0625H2.34375C1.56838 31.0625 0.9375 30.4317 0.9375 29.6563V21.5244H17.556V29.6562C17.556 30.4317 16.9252 31.0625 16.1498 31.0625ZM18.5205 16.6786L21.6899 9.98731C22.3048 9.91413 22.8914 9.70013 23.4123 9.35888L27.5582 11.3226C27.6242 11.9418 27.8303 12.5313 28.1632 13.0533L22.4011 25.2185C21.7861 25.2917 21.1996 25.5057 20.6787 25.8469L18.4936 24.8119V16.7277C18.5034 16.7121 18.5124 16.6957 18.5205 16.6786Z" fill="#192A32"/>
<path d="M19.5773 17.0588L19.6939 17.114C19.6262 18.0262 20.4589 18.8054 21.3717 18.5171C21.8498 18.3662 22.1717 17.9661 22.5052 17.6192C22.7073 17.4087 23.1352 17.3066 23.3253 17.6309C23.4424 17.8308 23.4155 18.0332 23.3722 18.1679C23.2865 18.4348 23.0658 18.6752 22.7963 18.7953C22.5599 18.9007 22.4537 19.1778 22.559 19.4142C22.6586 19.6379 22.9563 19.7503 23.1779 19.6516C23.4576 19.527 23.7055 19.3374 23.9003 19.1064C24.1608 19.2722 24.508 19.2486 24.6541 18.9449C24.7649 18.7109 24.6651 18.4314 24.4312 18.3206L24.3142 18.2651C24.6132 16.7515 22.8932 15.9096 21.8288 16.9698C21.6261 17.1809 21.3792 17.5316 21.0895 17.6231C20.7866 17.6664 20.6328 17.524 20.628 17.1959C20.6472 16.8392 20.989 16.682 21.0036 16.6755C21.6062 16.4292 21.2599 15.5704 20.6387 15.8119C20.472 15.881 20.2447 16.0252 20.0543 16.2474L19.9786 16.2115C19.7446 16.1007 19.4651 16.2005 19.3543 16.4345C19.2435 16.6685 19.3433 16.948 19.5773 17.0588Z" fill="#192A32"/>
<path d="M23.4401 14.658C23.66 14.7622 23.9594 14.6567 24.0644 14.435L24.9508 12.5635C25.0615 12.3295 24.9618 12.0501 24.7278 11.9392C24.494 11.8285 24.2144 11.9282 24.1035 12.1622L23.2171 14.0337C23.1063 14.2677 23.2061 14.5471 23.4401 14.658Z" fill="#192A32"/>
<path d="M19.363 23.2666C19.5829 23.3708 19.8822 23.2653 19.9872 23.0436L20.8736 21.1722C20.9844 20.9382 20.8846 20.6587 20.6506 20.5479C20.4169 20.4372 20.1372 20.5369 20.0264 20.7709L19.14 22.6423C19.0291 22.8763 19.129 23.1558 19.363 23.2666Z" fill="#192A32"/>
<path d="M11.6286 6.94817C11.5735 6.77848 11.4268 6.65486 11.2502 6.62917L10.156 6.47011L9.66653 5.47823C9.49784 5.13616 8.99452 5.13616 8.82584 5.47823L8.3364 6.47011L7.24208 6.62917C6.86464 6.68405 6.70933 7.16242 6.98233 7.42867L7.77421 8.2008L7.58727 9.29112C7.52264 9.66712 7.93152 9.962 8.2674 9.78525L9.24621 9.27056L10.2249 9.78525C10.5867 9.9755 10.9641 9.63499 10.9052 9.29112L10.7182 8.2008L11.5101 7.42867C11.6377 7.30411 11.6837 7.11786 11.6286 6.94817ZM9.88722 7.70155C9.77678 7.80924 9.7264 7.96436 9.75247 8.11636L9.82053 8.5133L9.4644 8.32599C9.32778 8.25418 9.16453 8.25418 9.02809 8.32599L8.67184 8.5133L8.7399 8.11636C8.76602 7.9643 8.71559 7.80917 8.60515 7.70149L8.31677 7.4203L8.71527 7.36236C8.8679 7.34017 8.99996 7.24423 9.06815 7.10586L9.24628 6.74492L9.4244 7.10586C9.49265 7.24423 9.62465 7.34017 9.77728 7.36236L10.1758 7.4203L9.88722 7.70155Z" fill="#192A32"/>
<path d="M11.9314 10.5582C12.0361 10.7027 12.2136 10.7752 12.3896 10.7454L13.2541 10.5985L13.8651 11.2275C14.1394 11.5098 14.6105 11.3405 14.6651 10.969L14.7927 10.1011L15.5799 9.71407C15.9223 9.54582 15.9229 9.04276 15.5812 8.87338L14.7954 8.48401L14.6709 7.61575C14.6167 7.23813 14.1384 7.082 13.8717 7.35463L13.2585 7.98182L12.3944 7.83219C12.0507 7.77282 11.7095 8.14926 11.8991 8.51151L12.3059 9.28864L11.8965 10.0645C11.8132 10.2223 11.8267 10.4137 11.9314 10.5582ZM13.2507 9.07213L13.1701 8.91807L13.3414 8.94776C13.4935 8.97407 13.6487 8.92388 13.7565 8.81357L13.8778 8.68951L13.9025 8.86126C13.9244 9.01401 14.0201 9.14613 14.1584 9.2147L14.3141 9.29189L14.1581 9.36864C14.0196 9.4367 13.9235 9.56851 13.9011 9.72114L13.8758 9.89308L13.7549 9.76857C13.6277 9.65332 13.4895 9.6082 13.3401 9.63307L13.1689 9.66214L13.2501 9.50845C13.3221 9.37189 13.3223 9.20876 13.2507 9.07213Z" fill="#192A32"/>
<path d="M6.55713 8.01801C6.45194 7.87383 6.27375 7.80183 6.09838 7.83226L5.23431 7.98189L4.62106 7.3547C4.3545 7.08189 3.87606 7.23826 3.82193 7.61576L3.69731 8.48402L2.91155 8.87345C2.56986 9.04277 2.57068 9.54589 2.91293 9.71408L3.70006 10.1011L3.82768 10.969C3.88224 11.3405 4.35337 11.5098 4.62768 11.2275L5.23869 10.5985L6.10319 10.7454C6.447 10.8037 6.78726 10.4261 6.59632 10.0645L6.18682 9.28858L6.59363 8.51145C6.67638 8.35351 6.66225 8.1622 6.55713 8.01801ZM5.15275 9.63296C5.00037 9.60708 4.8455 9.65783 4.73793 9.76846L4.617 9.89296L4.59168 9.72102C4.56931 9.56839 4.47318 9.43658 4.33475 9.36852L4.17868 9.29177L4.33443 9.21458C4.47262 9.14608 4.56831 9.01396 4.59025 8.8612L4.61493 8.68939L4.73631 8.81352C4.84412 8.92383 4.99944 8.97395 5.15144 8.9477L5.32262 8.91802L5.242 9.07208C5.17044 9.20877 5.17069 9.37183 5.24275 9.50827L5.32387 9.66196L5.15275 9.63296Z" fill="#192A32"/>
<path d="M11.5111 26.5537L10.7192 25.7816L10.9061 24.6914C10.9706 24.3156 10.5634 24.0196 10.2259 24.1972L9.24717 24.7119L8.26848 24.1972C7.93092 24.0197 7.52379 24.3154 7.58823 24.6914L7.77517 25.7816L6.98329 26.5537C6.71029 26.82 6.86567 27.2984 7.24304 27.3533L8.33736 27.5123L8.8268 28.5042C8.99549 28.8463 9.4988 28.8463 9.66749 28.5042L10.1569 27.5123L11.2512 27.3533C11.6287 27.2984 11.7841 26.8199 11.5111 26.5537ZM9.77818 26.62C9.62555 26.6422 9.49349 26.7381 9.4253 26.8765L9.24717 27.2374L9.06905 26.8765C9.0008 26.7381 8.8688 26.6422 8.71617 26.62L8.31767 26.5621L8.60605 26.2808C8.71655 26.1731 8.76692 26.018 8.74086 25.8659L8.6728 25.469L9.02892 25.6563C9.16555 25.7281 9.32874 25.7281 9.4653 25.6563L9.82143 25.469L9.75336 25.8659C9.7273 26.018 9.77774 26.1731 9.88818 26.2808L10.1766 26.5621L9.77818 26.62Z" fill="#192A32"/>
<path d="M6.56139 23.4241C6.4567 23.2796 6.27901 23.2071 6.1032 23.237L5.23869 23.3839L4.62769 22.7549C4.36194 22.4814 3.88313 22.6359 3.82769 23.0133L3.70006 23.8813L2.91287 24.2683C2.57062 24.4366 2.56993 24.9395 2.91156 25.109L3.69725 25.4983L3.82188 26.3667C3.87519 26.7384 4.346 26.9091 4.621 26.6277L5.23426 26.0005L6.09832 26.1502C6.47401 26.2149 6.77051 25.8089 6.59358 25.4708L6.18676 24.6937L6.59626 23.9178C6.67964 23.7601 6.66608 23.5686 6.56139 23.4241ZM5.24201 24.9102L5.3227 25.0643L5.15144 25.0347C4.99913 25.0083 4.84413 25.0586 4.73632 25.1688L4.61494 25.293L4.59025 25.1211C4.56832 24.9684 4.47263 24.8362 4.33438 24.7677L4.17869 24.6906L4.33482 24.6138C4.47325 24.5458 4.56932 24.414 4.59169 24.2613L4.617 24.0894L4.73794 24.2139C4.84551 24.3246 5.00038 24.3755 5.15276 24.3494L5.32382 24.3203L5.24269 24.474C5.17069 24.6105 5.17051 24.7735 5.24201 24.9102Z" fill="#192A32"/>
<path d="M15.5804 24.2683L14.7933 23.8813L14.6656 23.0133C14.6102 22.6359 14.1314 22.4814 13.8656 22.7549L13.2546 23.3839L12.3901 23.237C12.0142 23.1732 11.7189 23.5805 11.897 23.9179L12.3064 24.6938L11.8996 25.4709C11.7226 25.809 12.0192 26.2148 12.3949 26.1502L13.259 26.0006L13.8723 26.6278C14.1473 26.9092 14.6181 26.7384 14.6714 26.3667L14.7959 25.4984L15.5817 25.109C15.9234 24.9396 15.9226 24.4366 15.5804 24.2683ZM14.1589 24.7677C14.0206 24.8362 13.9249 24.9684 13.903 25.1211L13.8783 25.293L13.757 25.1689C13.6297 25.0541 13.4913 25.0094 13.3419 25.0347L13.1706 25.0644L13.2512 24.9103C13.3228 24.7736 13.3226 24.6105 13.2505 24.4741L13.1694 24.3204L13.3405 24.3495C13.493 24.3755 13.6478 24.3246 13.7553 24.214L13.8763 24.0895L13.9016 24.2614C13.9239 24.414 14.0201 24.5458 14.1584 24.6139L14.3145 24.6906L14.1589 24.7677Z" fill="#192A32"/>
<path d="M10.9487 19.4594C11.2076 19.4594 11.4174 19.2495 11.4174 18.9906V16.5029L13.2619 19.1737C13.401 19.3745 13.6324 19.4601 13.8512 19.3916C14.0751 19.3217 14.2197 19.1114 14.2197 18.8513L14.1823 14.9872C14.1799 14.7282 13.9674 14.5202 13.7091 14.523C13.4501 14.5255 13.2423 14.7374 13.2448 14.9962L13.2694 17.5347L11.3345 14.7328C11.2179 14.564 11.0052 14.4907 10.8092 14.5517C10.6134 14.6127 10.48 14.794 10.48 14.9992V18.9906C10.4799 19.2495 10.6897 19.4594 10.9487 19.4594Z" fill="#192A32"/>
<path d="M9.15479 19.4593C9.41373 19.4593 9.62354 19.2495 9.62354 18.9906V14.9917C9.60204 14.371 8.70735 14.3715 8.68604 14.9917V18.9906C8.68604 19.2495 8.89585 19.4593 9.15479 19.4593Z" fill="#192A32"/>
<path d="M3.34751 19.0217C3.35189 19.044 3.35801 19.0661 3.36564 19.0876C3.44476 19.3104 3.65608 19.4595 3.89239 19.4595H3.89627C4.13408 19.4579 4.34527 19.3055 4.42171 19.0804C4.42302 19.0764 4.42439 19.0723 4.42564 19.0682L5.19446 16.5843L5.95984 19.0687C5.96177 19.075 5.96384 19.0813 5.96615 19.0875C6.04527 19.3104 6.25659 19.4594 6.4929 19.4594H6.49659C6.73434 19.4579 6.94559 19.3057 7.02215 19.0806C7.02878 19.0611 7.03409 19.0412 7.03815 19.0209L7.82041 15.0906C7.87097 14.8367 7.70609 14.5899 7.45215 14.5394C7.19809 14.4889 6.9514 14.6537 6.90097 14.9076L6.41353 17.3567L5.64246 14.8538C5.56621 14.6064 5.30383 14.4676 5.05646 14.5439C4.88714 14.596 4.76877 14.7353 4.73527 14.8974L3.97402 17.3569L3.4882 14.9009C3.43795 14.6469 3.19151 14.4819 2.93745 14.532C2.68351 14.5822 2.51832 14.8289 2.56857 15.0827L3.34751 19.0217Z" fill="#192A32"/>
<path d="M15.4653 17.8801C15.7243 17.8801 15.9341 17.6702 15.9341 17.4113V14.9917C15.9126 14.371 15.0179 14.3715 14.9966 14.9917V17.4113C14.9966 17.6702 15.2065 17.8801 15.4653 17.8801Z" fill="#192A32"/>
<path d="M15.4646 18.5217C15.2091 18.5217 14.9975 18.7357 14.9966 18.9905C15.0285 19.6299 15.9388 19.6005 15.9332 18.9621C15.9182 18.7182 15.7091 18.5217 15.4646 18.5217Z" fill="#192A32"/>
</svg>
