<svg width="32" height="32" viewBox="0 0 32 32" fill="none" xmlns="http://www.w3.org/2000/svg">
<g clip-path="url(#clip0_136_6014)">
<path d="M26.5503 11.6367C26.5503 11.3778 26.3405 11.168 26.0815 11.168H17.4806C17.4787 11.168 17.4768 11.168 17.475 11.168C17.4731 11.168 17.4712 11.168 17.4694 11.168H5.9375C5.67856 11.168 5.46875 11.3778 5.46875 11.6367V24.8913C5.46875 25.1502 5.67856 25.36 5.9375 25.36H17.4694C17.4713 25.36 17.4732 25.36 17.475 25.36C17.4769 25.36 17.4787 25.36 17.4806 25.36H26.0814C26.3404 25.36 26.5502 25.1502 26.5502 24.8913V11.6367H26.5503ZM6.40626 17.7953V15.4271H17.0007V17.7953H6.40626ZM19.8788 17.7953H17.9494V15.4271H19.8788V17.7953ZM20.8163 15.4271H22.7458V17.7953H20.8163V15.4271ZM25.6128 17.7953H23.6833V15.4271H25.6128V17.7953ZM6.40626 18.7488H17.0007V21.1169H6.40626V18.7488ZM17.9493 18.7488H19.8788V21.1169H17.9493V18.7488ZM20.8163 18.7488H22.7458V21.1169H20.8163V18.7488ZM23.6833 18.7488H25.6128V21.1169H23.6833V18.7488ZM25.6128 14.4736H23.6833V12.1055H25.6128V14.4736ZM22.7458 14.4736H20.8163V12.1055H22.7458V14.4736ZM17.9493 12.1055H19.8788V14.4736H17.9493V12.1055ZM6.40626 12.1055H17.0007V14.4736H6.40626V12.1055ZM17.0007 24.4225H6.40626V22.0544H17.0007V24.4225ZM17.9493 22.0544H19.8788V24.4225H17.9493V22.0544ZM20.8163 22.0544H22.7458V24.4225H20.8163V22.0544ZM25.6128 24.4225H23.6833V22.0544H25.6128V24.4225Z" fill="#192A32"/>
<path d="M18.48 16.792C18.5772 17.0338 18.8693 17.1457 19.1047 17.0398C19.635 16.7775 19.3288 15.9984 18.7618 16.1686C18.5085 16.2551 18.3783 16.545 18.48 16.792Z" fill="#192A32"/>
<path d="M24.2149 13.4704C24.3078 13.7028 24.582 13.8169 24.8139 13.7291C25.3829 13.4838 25.0717 12.6607 24.4826 12.8531C24.2389 12.9443 24.1137 13.2297 24.2149 13.4704Z" fill="#192A32"/>
<path d="M22.2124 19.8004C22.1147 19.5646 21.8356 19.4486 21.5998 19.5466C21.0383 19.8096 21.3762 20.624 21.9585 20.4123C22.1931 20.3148 22.3115 20.0359 22.2124 19.8004Z" fill="#192A32"/>
<path d="M24.3867 23.6275C24.6044 23.7708 24.907 23.708 25.0448 23.4852C25.3497 22.9395 24.5924 22.4773 24.2457 22.9956C24.1186 23.2065 24.1801 23.4913 24.3867 23.6275Z" fill="#192A32"/>
<path d="M13.481 26.7812C12.8603 26.8027 12.8608 27.6974 13.481 27.7187H18.5196C19.1403 27.6972 19.1398 26.8026 18.5196 26.7812H13.481Z" fill="#192A32"/>
<path d="M28.4342 0H7.12526C6.86632 0 6.6565 0.209877 6.6565 0.468755C6.6565 0.727632 6.86632 0.937509 7.12526 0.937509H27.9655V3.17047H4.03517V0.937509H5.27099C5.52993 0.937509 5.73974 0.727632 5.73974 0.468755C5.73974 0.209877 5.52993 0 5.27105 0H3.56641C3.30747 0 3.09766 0.209877 3.09766 0.468755V31.5312C3.09766 31.8678 3.49535 32.1348 3.82029 31.9253L5.12061 31.0874L6.421 31.9253C6.57569 32.0249 6.77413 32.0249 6.92882 31.9253L8.22914 31.0874L9.52947 31.9253C9.68416 32.025 9.8826 32.0249 10.0373 31.9253L11.3377 31.0874L12.638 31.9253C12.7926 32.0249 12.9911 32.025 13.1458 31.9253L14.4462 31.0874L15.7465 31.9253C15.9012 32.025 16.0997 32.025 16.2543 31.9253L17.5547 31.0874L18.8551 31.9253C19.0097 32.0249 19.2082 32.0249 19.3629 31.9253L20.6632 31.0874L21.9636 31.9253C22.1183 32.0249 22.3167 32.0249 22.4714 31.9253L23.7717 31.0874L25.0721 31.9253C25.2267 32.0249 25.4251 32.025 25.5799 31.9253L26.8803 31.0874L28.1806 31.9253C28.488 32.1234 28.9032 31.8956 28.9032 31.5313V26.8126C28.8823 26.1931 27.9873 26.1914 27.9657 26.8126V30.6716L27.1341 30.1357C26.9794 30.0361 26.781 30.0361 26.6263 30.1357L25.3259 30.9736L24.0256 30.1357C23.8709 30.0361 23.6725 30.0361 23.5178 30.1357L22.2175 30.9736L20.9171 30.1357C20.7624 30.0361 20.5639 30.0361 20.4093 30.1357L19.1089 30.9736L17.8085 30.1357C17.6539 30.0361 17.4554 30.0361 17.3007 30.1357L16.0004 30.9736L14.7001 30.1357C14.5454 30.0361 14.347 30.0361 14.1923 30.1357L12.8919 30.9736L11.5916 30.1357C11.4369 30.0361 11.2384 30.0361 11.0837 30.1357L9.78335 30.9736L8.48302 30.1357C8.32833 30.0361 8.12989 30.0361 7.9752 30.1357L6.67488 30.9736L5.37449 30.1357C5.2198 30.0361 5.02136 30.0361 4.86667 30.1357L4.0351 30.6716V4.10798H27.9654V24.9731C27.9654 25.232 28.1752 25.4419 28.4342 25.4419C28.6931 25.4419 28.9029 25.232 28.9029 24.9731V0.468755C28.903 0.209877 28.6932 0 28.4342 0Z" fill="#192A32"/>
<path d="M22.9193 6.73047C22.9193 6.4716 22.7095 6.26172 22.4506 6.26172H9.54932C8.92862 6.28322 8.92912 7.17792 9.54932 7.19923H22.4506C22.7094 7.19923 22.9193 6.98935 22.9193 6.73047Z" fill="#192A32"/>
<path d="M11.3618 8.25C10.7411 8.2715 10.7416 9.1662 11.3618 9.18751H20.638C21.2587 9.16601 21.2582 8.27131 20.638 8.25H11.3618Z" fill="#192A32"/>
</g>
<defs>
<clipPath id="clip0_136_6014">
<rect width="32" height="32" fill="white"/>
</clipPath>
</defs>
</svg>
