<svg width="33" height="32" viewBox="0 0 33 32" fill="none" xmlns="http://www.w3.org/2000/svg">
<path d="M14.3604 16.7927H13.808V15.7945C13.7865 15.1724 12.8898 15.1729 12.8684 15.7945V16.7927H12.316C11.6939 16.8142 11.6944 17.7109 12.316 17.7323H12.8684V18.7305C12.89 19.3525 13.7867 19.352 13.808 18.7305V17.7323H14.3604C14.9825 17.7107 14.982 16.814 14.3604 16.7927Z" fill="#192A32"/>
<path d="M20.6689 16.7927H20.1165V15.7945C20.095 15.1724 19.1983 15.1729 19.1769 15.7945V16.7927H18.6246C18.0025 16.8142 18.003 17.7109 18.6246 17.7323H19.1769V18.7305C19.1985 19.3525 20.0952 19.352 20.1165 18.7305V17.7323H20.6689C21.291 17.7107 21.2906 16.814 20.6689 16.7927Z" fill="#192A32"/>
<path d="M27.7362 3.22147C26.7589 3.22147 25.9618 4.07338 26.0225 5.04757C22.9032 5.82556 21.0928 7.56465 20.0449 9.24742C19.7437 7.5416 19.0758 5.23793 17.601 3.02879C18.8087 2.01458 18.0886 0.000313202 16.4917 0C14.8879 0.000751685 14.1723 2.02855 15.3928 3.0375C13.9201 5.24701 13.2536 7.55005 12.9534 9.25469C12.3991 8.36964 11.597 7.40924 10.4494 6.60143C10.2372 6.45209 9.94422 6.50302 9.79482 6.71512C9.64548 6.92734 9.69641 7.22038 9.90857 7.36971C11.4599 8.46172 12.3097 9.86787 12.7556 10.8859L12.7496 12.4937C10.9966 11.7091 8.91265 12.8973 8.90388 14.8611C8.90388 14.861 8.90388 17.0364 8.90388 17.0364C8.90388 19.8314 10.53 22.2663 12.9159 23.5036L11.2614 25.356L7.73689 25.847L10.0867 22.8288C10.2235 22.653 10.2181 22.4054 10.0738 22.2358C8.85208 20.7994 8.17926 18.9846 8.17926 17.1256C8.17926 13.672 8.0541 9.69536 6.59226 6.02513C6.61557 5.99663 6.63793 5.96738 6.65935 5.93744C7.29697 6.09166 7.90063 6.29593 8.45801 6.54655C8.67988 6.64615 8.97849 6.53459 9.07915 6.31065C9.18551 6.07399 9.0799 5.79587 8.84325 5.68951C8.26119 5.42786 7.63485 5.21269 6.97594 5.04769C7.00206 2.70507 3.65599 2.58768 3.54518 4.93958C3.52476 6.08702 4.71775 6.94639 5.79723 6.57242C7.12427 10.0356 7.23965 13.8235 7.23965 17.1256C7.23965 19.0808 7.9032 20.9911 9.11554 22.5467L6.9884 25.2789C6.75337 25.5808 6.72512 25.99 6.91661 26.3213C7.10786 26.6524 7.47568 26.8322 7.85466 26.7794L10.9405 26.3493L10.5016 29.5044C10.4488 29.8836 10.6289 30.2521 10.9603 30.4433C11.2915 30.6343 11.7003 30.6057 12.0017 30.3707L14.4394 28.4693L15.6307 31.4153C15.7735 31.7688 16.112 31.9982 16.493 31.9999C16.8738 32.0016 17.2146 31.7751 17.3605 31.4228L18.2461 29.2848L18.5764 28.4693L21.0142 30.3707C21.3156 30.6058 21.7243 30.6343 22.0556 30.4433C22.387 30.2521 22.5671 29.8835 22.5143 29.5045L22.0754 26.3493L25.1612 26.7794C25.5401 26.8325 25.908 26.6524 26.0993 26.3213C26.2907 25.99 26.2625 25.5809 26.0275 25.2789L23.884 22.5257C25.086 20.974 25.7439 19.0711 25.7439 17.1256C25.7439 13.8318 25.8603 10.0509 27.1997 6.57192C28.2795 6.94701 29.4737 6.08777 29.4533 4.93958C29.4532 3.9922 28.6829 3.22147 27.7362 3.22147ZM4.48472 4.93964C4.48472 4.5103 4.83351 4.16102 5.26222 4.16102C5.69093 4.16102 6.03971 4.5103 6.03971 4.93964C6.03971 5.35238 5.67652 5.71832 5.26222 5.71832C4.83351 5.71832 4.48472 5.36904 4.48472 4.93964ZM16.4917 0.939607C16.9204 0.939607 17.2692 1.28889 17.2692 1.71829C17.2301 2.74979 15.7532 2.74954 15.7143 1.71829C15.7143 1.28889 16.0631 0.939607 16.4917 0.939607ZM13.6955 10.8102C13.8303 9.23683 14.345 6.23097 16.267 3.4218C16.4185 3.44197 16.5802 3.44128 16.7312 3.41979C18.6613 6.23974 19.1729 9.2587 19.3055 10.8267C19.306 10.8327 19.3066 10.8387 19.3074 10.8446L19.3154 12.7294C17.4678 13.1324 15.5365 13.1339 13.6882 12.7338L13.6955 10.8102ZM11.4338 29.6219L11.9362 26.0109L13.8207 23.9011C14.2341 24.0519 14.6646 24.1688 15.1086 24.2481L14.2295 27.4415L11.4338 29.6219ZM16.497 31.0514L15.1363 27.6875L16.0529 24.3581C16.3538 24.3748 16.6614 24.3742 16.9625 24.3564L17.8794 27.6874L17.3766 28.9287L16.497 31.0514ZM18.7862 27.4414L17.9059 24.2437C18.3414 24.1646 18.7674 24.0489 19.1802 23.8976L21.0817 26.0265L21.5817 29.6219L18.7862 27.4414ZM24.8042 17.1256C24.8042 18.9756 24.137 20.7837 22.9254 22.2169C22.7819 22.3865 22.777 22.6334 22.9135 22.8088L25.2788 25.8472L21.741 25.3541L20.0837 23.4986C20.378 23.3452 20.6632 23.1722 20.9377 22.98C21.1503 22.8313 21.202 22.5383 21.0532 22.3257C20.9045 22.1131 20.6116 22.0615 20.399 22.2102C16.2626 25.2337 9.83247 22.2902 9.84343 17.0362V14.8609C9.84343 13.7238 10.998 12.9109 12.0714 13.2658C14.9171 14.2057 18.0664 14.2057 20.9121 13.2657C21.9856 12.9114 23.1401 13.7235 23.1401 14.8609V17.0363C23.1401 18.4997 22.6129 19.9299 21.6558 21.0637C21.4884 21.262 21.5135 21.5583 21.7117 21.7257C21.91 21.8931 22.2063 21.868 22.3738 21.6698C23.4739 20.3667 24.0797 18.7212 24.0797 17.0363V14.8609C24.0797 13.101 22.2911 11.821 20.6175 12.3735C20.4969 12.4133 20.3757 12.4514 20.2541 12.4876L20.2472 10.8756C21.0405 9.06746 22.7362 6.8072 26.339 5.93731C26.3602 5.96688 26.3823 5.99582 26.4052 6.02394C24.9304 9.71134 24.8042 13.6805 24.8042 17.1256ZM27.7362 5.71832C27.3068 5.71832 26.9587 5.35557 26.9587 4.93964C26.9978 3.90814 28.4746 3.90839 28.5136 4.93964C28.5136 5.36904 28.1648 5.71832 27.7362 5.71832Z" fill="#192A32"/>
</svg>
