<svg width="33" height="32" viewBox="0 0 33 32" fill="none" xmlns="http://www.w3.org/2000/svg">
<path d="M30.7811 4.86021H18.9936V2.34432C18.9936 1.05197 17.9423 0.000617178 16.6499 0.000617178H5.62545C5.62445 -0.00132028 2.84632 0.00205465 2.84419 0.000617178C1.55184 0.000617178 0.500488 1.05197 0.500488 2.34432V4.27135C0.500488 4.53022 0.710359 4.74009 0.969229 4.74009C1.2281 4.74009 1.43797 4.53022 1.43797 4.27135V2.34432C1.43797 1.5689 2.06877 0.938099 2.84419 0.938099H5.3902L6.47 2.34013C6.79311 2.75969 7.3021 3.01018 7.83172 3.01018H11.6655C12.1958 3.01018 12.7052 2.75913 13.0284 2.33857L14.1043 0.938099H16.6499C17.4253 0.938099 18.0561 1.5689 18.0561 2.34432V4.86021H13.2705C12.3228 4.86021 11.5518 5.63119 11.5518 6.57893V16.0157C11.5518 16.9634 12.3228 17.7344 13.2705 17.7344H15.0072V19.5582C15.0072 20.2396 15.8711 20.5804 16.3409 20.1107L18.0562 18.3953V29.6563C18.0562 30.4317 17.4254 31.0625 16.65 31.0625H2.84419C2.06877 31.0625 1.43797 30.4317 1.43797 29.6563V6.14637C1.43797 5.8875 1.2281 5.67763 0.969229 5.67763C0.710359 5.67763 0.500488 5.8875 0.500488 6.14637V29.6563C0.500488 30.9486 1.55184 32 2.84419 32H16.6499C17.9423 32 18.9936 30.9486 18.9936 29.6563V17.7345H27.0895C27.3483 17.7345 27.5582 17.5246 27.5582 17.2657C27.5582 17.0068 27.3483 16.797 27.0895 16.797H18.5229C18.3986 16.797 18.2794 16.8463 18.1915 16.9343L15.9447 19.1811V17.2657C15.9447 17.0068 15.7348 16.797 15.4759 16.797H13.2705C12.8397 16.797 12.4893 16.4465 12.4893 16.0157V6.57899C12.4893 6.14818 12.8397 5.79775 13.2705 5.79775H30.7811C31.2119 5.79775 31.5624 6.14818 31.5624 6.57899V16.0157C31.5624 16.4465 31.2119 16.797 30.7811 16.797H29.0624C28.4404 16.8185 28.4438 17.7141 29.0624 17.7345H30.7811C31.7289 17.7345 32.4999 16.9635 32.4999 16.0157V6.57899C32.4999 5.63126 31.7289 4.86021 30.7811 4.86021ZM12.2849 1.76739C12.138 1.95858 11.9064 2.0727 11.6654 2.0727H7.83166C7.59097 2.0727 7.3596 1.95883 7.21273 1.76814L6.57343 0.938099H12.9221L12.2849 1.76739Z" fill="#192A32"/>
<path d="M23.4944 8.73509C24.1151 8.71359 24.1146 7.81892 23.4944 7.79761H20.9165C20.6576 7.79761 20.4478 8.00748 20.4478 8.26635V14.3846C20.4478 14.6435 20.6576 14.8533 20.9165 14.8533H23.4944C24.1151 14.8318 24.1146 13.9372 23.4944 13.9159H21.3852V11.7942H23.3044C23.9251 11.7727 23.9246 10.878 23.3044 10.8567H21.3852V8.73509H23.4944Z" fill="#192A32"/>
<path d="M17.0509 7.74122H15.2573C14.9984 7.74122 14.7886 7.9511 14.7886 8.20997V14.3846C14.7886 14.6634 15.0194 14.8169 15.2594 14.8533C15.2759 14.8533 16.9151 14.846 17.3641 14.846C19.5269 14.8329 20.2868 11.9871 18.4599 10.8884C19.5411 9.696 18.6762 7.73529 17.0509 7.74122ZM17.0509 8.67871C18.3124 8.72671 18.3117 10.5352 17.0509 10.5828C16.6093 10.5828 16.1677 10.585 15.7261 10.5844V8.67864H17.0509V8.67871ZM17.3641 13.9085C17.0667 13.9085 16.2515 13.9117 15.7261 13.9139V11.5246C16.2722 11.5223 16.8182 11.522 17.3641 11.522C18.9451 11.5819 18.9446 13.8489 17.3641 13.9085Z" fill="#192A32"/>
<path d="M27.0828 14.8533C27.3417 14.8533 27.5516 14.6435 27.5516 14.3846V8.67869H28.7947C29.4154 8.65719 29.4149 7.76252 28.7947 7.74121H25.3848C24.7641 7.76271 24.7646 8.65738 25.3848 8.67869H26.6141V14.3846C26.6141 14.6435 26.824 14.8533 27.0828 14.8533Z" fill="#192A32"/>
<path d="M9.74711 6.73511H4.06298C3.4423 6.75661 3.4428 7.65128 4.06298 7.67259H9.74711C10.3678 7.65109 10.3674 6.75642 9.74711 6.73511Z" fill="#192A32"/>
<path d="M4.06298 15.7497H9.74711C10.3678 15.7282 10.3673 14.8336 9.74711 14.8123H4.06298C3.4423 14.8338 3.4428 15.7284 4.06298 15.7497Z" fill="#192A32"/>
<path d="M9.74716 9.42749H6.18798C5.5673 9.44899 5.5678 10.3437 6.18798 10.365H9.74716C10.3678 10.3434 10.3674 9.44874 9.74716 9.42749Z" fill="#192A32"/>
<path d="M9.74716 12.1199H6.18798C5.5673 12.1414 5.5678 13.036 6.18798 13.0574H9.74716C10.3678 13.0359 10.3674 12.1412 9.74716 12.1199Z" fill="#192A32"/>
<path d="M5.97691 26.1997H13.518C16.7345 26.0773 16.732 21.4665 13.518 21.3452H5.97691C2.76035 21.4676 2.76285 26.0785 5.97691 26.1997ZM5.97691 22.2827H13.518C15.4922 22.3578 15.4907 25.1879 13.518 25.2623H5.97691C4.0027 25.1871 4.00414 22.3571 5.97691 22.2827Z" fill="#192A32"/>
<path d="M5.99706 27.5938C5.37638 27.6152 5.37688 28.5099 5.99706 28.5312H13.4969C14.1176 28.5097 14.1171 27.6151 13.4969 27.5938H5.99706Z" fill="#192A32"/>
</svg>
