<svg width="33" height="32" viewBox="0 0 33 32" fill="none" xmlns="http://www.w3.org/2000/svg">
<path d="M27.6481 23.0616C27.6341 21.2376 25.5441 20.3596 23.8716 21.0629C24.5816 19.3934 23.6824 17.3368 21.8548 17.3239C21.2348 17.3239 20.6582 17.5663 20.2376 17.9832C20.0147 17.7623 19.7481 17.5904 19.4543 17.4776C22.7221 12.0861 26.9023 9.26162 26.9452 9.233C27.0759 9.14612 27.1544 8.99963 27.1544 8.84269V0.46875C27.1544 0.209812 26.9446 0 26.6857 0H23.6171C23.3582 0 23.1484 0.209812 23.1484 0.46875V1.63825H8.50606V0.46875C8.50606 0.209812 8.29625 0 8.03731 0H4.96875C4.70981 0 4.5 0.209812 4.5 0.46875V1.87112C4.5 2.13006 4.70981 2.33987 4.96875 2.33987C5.22769 2.33987 5.4375 2.13006 5.4375 1.87112V0.9375H7.56856V2.107C7.56856 2.36594 7.77837 2.57575 8.03731 2.57575H23.617C23.8759 2.57575 24.0857 2.36594 24.0857 2.107V0.9375H26.2168V8.59762C25.2809 9.26562 21.4797 12.1735 18.4502 17.3306C16.7206 17.4739 15.9224 19.4575 16.6036 21.0629C14.9306 20.3593 12.8407 21.2384 12.8271 23.0616C12.8271 23.675 13.0701 24.2452 13.4884 24.6619C12.1939 25.9665 12.8989 28.0896 14.751 28.4438C14.6594 29.2948 14.6061 30.1599 14.592 31.0263H7.69994C7.765 27.6448 8.53456 24.3435 9.98987 21.2068C12.4728 15.2855 19.3094 9.22544 22.4698 7.53925C22.8796 7.30737 22.7098 6.66256 22.239 6.66256H8.03731C7.77837 6.66256 7.56856 6.87238 7.56856 7.13131V8.37394H5.4375V3.60419C5.41725 2.98581 4.52175 2.982 4.5 3.60419V8.84269C4.5 9.10163 4.70981 9.31144 4.96875 9.31144H8.03731C8.29625 9.31144 8.50606 9.10163 8.50606 8.84269V7.60006H20.6324C13.1789 12.5827 6.53994 21.81 6.75812 31.4951C6.75794 31.7539 6.96781 31.9638 7.22669 31.9638H15.0569C15.3158 31.9638 15.5256 31.754 15.5256 31.4951C15.5256 30.4856 15.5807 29.4748 15.6896 28.4846C15.9877 28.4519 16.2917 28.3775 16.5985 28.2628C15.8979 29.9305 16.7921 31.9876 18.6205 32C19.2404 32 19.8171 31.7576 20.2376 31.3406C21.0602 32.1941 22.6064 32.2356 23.4211 31.325C23.5992 31.137 23.5911 30.8403 23.4031 30.6623C23.2153 30.4842 22.9184 30.4923 22.7404 30.6803C22.1939 31.3012 21.0496 31.1394 20.6541 30.3426C20.4912 30.0083 19.984 30.0084 19.8211 30.3426C19.5918 30.7866 19.1317 31.0625 18.6204 31.0625C17.7612 31.0625 17.2976 30.2602 17.2976 29.5053C17.2976 28.5884 17.8975 27.7116 18.4007 27.1374C18.7724 26.6938 18.1899 26.1059 17.7429 26.4728C17.1657 26.9683 16.2858 27.5582 15.3622 27.5662C14.6242 27.4217 13.7646 27.2139 13.7646 26.2623C13.7646 25.7598 14.0429 25.3069 14.4911 25.0802C14.8301 24.9186 14.8299 24.4051 14.4911 24.2436C12.5675 23.0716 14.6899 20.1904 17.7428 22.8511C17.9296 23.0113 18.2082 22.9999 18.3814 22.8251C18.5544 22.6503 18.5628 22.3714 18.4007 22.1864C17.8974 21.6123 17.2976 20.7355 17.2976 19.8185C17.2976 19.0636 17.7612 18.2614 18.6204 18.2614C19.1317 18.2614 19.5918 18.5372 19.8211 18.9813C19.9841 19.3156 20.4912 19.3155 20.6541 18.9813C21.8373 17.0816 24.7653 19.1622 22.0746 22.1864C21.9124 22.3714 21.9208 22.6503 22.0939 22.8251C22.2669 23 22.5456 23.0114 22.7324 22.8511C25.7846 20.1908 27.9081 23.0709 25.9841 24.2436C25.6452 24.4052 25.6452 24.9186 25.9841 25.0802C27.9091 26.2549 25.7822 29.1319 22.7324 26.4728C22.5457 26.3125 22.267 26.3239 22.0939 26.4988C21.9208 26.6736 21.9124 26.9525 22.0746 27.1375C22.73 27.8852 23.1084 28.6362 23.1688 29.3093C23.1919 29.5672 23.4203 29.7573 23.6776 29.7343C23.9354 29.7112 24.1257 29.4834 24.1026 29.2256C24.0741 28.9074 23.9982 28.586 23.8757 28.2624C25.548 28.9637 27.6348 28.0834 27.6482 26.2622C27.6482 25.6488 27.4051 25.0786 26.9869 24.6619C27.4051 24.2453 27.6481 23.675 27.6481 23.0616Z" fill="#192A32"/>
<path d="M20.2373 28.2671C20.4962 28.2671 20.706 28.0573 20.706 27.7984V25.1299H23.4076C24.0283 25.1084 24.0278 24.2136 23.4076 24.1924H20.706V21.5239C20.6845 20.9032 19.7898 20.9037 19.7685 21.5239V24.1924H17.0669C16.4462 24.2139 16.4467 25.1086 17.0669 25.1299H19.7685V27.7984C19.7685 28.0573 19.9784 28.2671 20.2373 28.2671Z" fill="#192A32"/>
</svg>
