<svg width="32" height="32" viewBox="0 0 32 32" fill="none" xmlns="http://www.w3.org/2000/svg">
<path d="M4.83667 15.431H5.64154C5.65288 15.431 5.67555 15.431 5.67555 15.4198L5.68689 15.3183C5.83426 15.3634 6.07231 15.4198 6.32171 15.431V15.6341H6.85451V15.431H7.04723C7.38732 15.431 8.36223 15.3746 8.36223 14.9912C8.36223 14.7205 7.86344 14.6528 7.7274 14.6302C7.59137 14.6077 7.10391 14.5851 6.85451 14.5738V14.4046H6.93387C7.01322 14.4046 7.26262 14.4272 7.34197 14.5174C7.34197 14.5287 7.35331 14.5287 7.36464 14.5287H8.14684C8.16952 14.5287 8.18085 14.5174 8.18085 14.5062V14.2016C8.18085 14.1903 8.16951 14.1678 8.12417 14.1678H7.478C7.45533 14.1678 7.43266 14.1678 7.43266 14.1903L7.39865 14.2693C7.29662 14.2355 7.10391 14.1903 6.84318 14.1791V13.9648H6.31038V14.1678H6.06098C5.67555 14.1678 5.35814 14.2129 5.19943 14.2806C5.07473 14.3257 4.814 14.4272 4.814 14.5964C4.814 14.7205 4.99538 14.8671 5.39215 14.946C5.5962 14.9912 6.10633 15.025 6.31038 15.025V15.1716H6.16301C6.14034 15.1716 5.75491 15.1603 5.70956 15.0588C5.70956 15.0476 5.69823 15.0363 5.67555 15.0363H4.83667C4.814 15.0363 4.814 15.0476 4.814 15.0588V15.3972C4.814 15.4198 4.814 15.431 4.83667 15.431ZM6.85451 15.0363H7.0359C7.06991 15.0363 7.20594 15.0588 7.20594 15.1152C7.20594 15.1716 7.05857 15.1829 7.0359 15.1829H6.86585V15.0363H6.85451ZM5.98163 14.4949C5.98163 14.4159 6.15167 14.4159 6.21969 14.4159H6.33305V14.5851C6.19702 14.5738 5.98163 14.5626 5.98163 14.4949ZM2.64879 16.1529C4.82534 16.8973 8.35089 16.8973 10.5161 16.1529C12.6927 15.4085 12.6927 14.2016 10.5161 13.4572C8.33955 12.7128 4.814 12.7128 2.64879 13.4572C0.472237 14.1903 0.472237 15.3972 2.64879 16.1529ZM3.41965 16.2319C3.23827 16.1867 3.05689 16.1303 2.88684 16.074C2.7168 16.0176 2.56943 15.9612 2.42206 15.8935L3.30629 15.5889C3.44232 15.6566 3.58969 15.713 3.75973 15.7694C3.92978 15.8258 4.11115 15.8822 4.30387 15.9273L3.41965 16.2319ZM3.99779 13.9084C5.42615 13.4121 7.75007 13.4121 9.17843 13.9084C10.6068 14.4046 10.6068 15.1942 9.17843 15.6905C7.75007 16.1867 5.42615 16.1867 3.99779 15.6905C2.55809 15.1942 2.55809 14.4046 3.99779 13.9084ZM7.30796 16.5815C7.09257 16.5928 6.84318 16.5928 6.60512 16.5928C6.36706 16.5928 6.15167 16.5928 5.91361 16.5815V16.1529C6.15167 16.1642 6.36706 16.1755 6.60512 16.1755C6.84318 16.1755 7.09257 16.1642 7.30796 16.1529V16.5815ZM10.278 16.0627C10.108 16.1191 9.93796 16.1755 9.74524 16.2206L8.86102 15.916C9.05374 15.8709 9.23512 15.8145 9.39382 15.7581C9.56387 15.7017 9.71124 15.6341 9.84727 15.5777L10.7315 15.8822C10.6068 15.9499 10.4481 16.0063 10.278 16.0627ZM11.8198 14.7994C11.8198 14.8784 11.8084 14.9573 11.7744 15.0363H10.5274C10.5728 14.9573 10.5841 14.8784 10.5841 14.7994C10.5841 14.7205 10.5615 14.6415 10.5274 14.5626H11.7744C11.7971 14.6415 11.8198 14.7205 11.8198 14.7994ZM9.75658 13.367C9.93796 13.4121 10.1193 13.4685 10.278 13.5249C10.4481 13.5813 10.6068 13.6489 10.7428 13.7053L9.85861 14.0099C9.72257 13.9422 9.5752 13.8858 9.40516 13.8294C9.23512 13.773 9.05373 13.7166 8.87235 13.6715L9.75658 13.367ZM5.91361 13.0173C6.15167 13.006 6.36706 13.006 6.59378 13.006C6.83184 13.006 7.05857 13.006 7.29663 13.0173V13.4459C7.0699 13.4346 6.84318 13.4234 6.60512 13.4234C6.36706 13.4234 6.15167 13.4346 5.92494 13.4459V13.0173H5.91361ZM2.88684 13.5362C3.05689 13.4798 3.22693 13.4234 3.41965 13.3782L4.30387 13.6828C4.11115 13.7279 3.92978 13.7843 3.75973 13.8407C3.58969 13.8971 3.44232 13.9648 3.30629 14.0212L2.42206 13.7166C2.56943 13.6489 2.7168 13.5926 2.88684 13.5362ZM1.40181 14.5626H2.64879C2.60344 14.6415 2.59211 14.7205 2.59211 14.7994C2.59211 14.8784 2.61478 14.9573 2.64879 15.0363H1.40181C1.3678 14.9573 1.35646 14.8784 1.35646 14.7994C1.35646 14.7205 1.3678 14.6415 1.40181 14.5626ZM1.01637 15.8033C1.01637 16.886 3.52167 17.7658 6.61646 17.7658C9.71124 17.7658 12.2165 16.886 12.2165 15.8033C12.2165 15.7017 12.2165 15.3183 12.2165 15.2167C12.2165 15.1829 12.2165 15.1603 12.2052 15.1265C12.0692 16.1755 9.62054 16.9988 6.60512 16.9988C3.56701 16.9988 1.09573 16.1529 1.00504 15.0927C0.993702 15.1265 1.00504 15.1716 1.00504 15.2055V15.8033H1.01637ZM3.38564 16.7169C3.499 16.7394 3.57836 16.7507 3.57836 16.7507V17.371C3.57836 17.371 3.499 17.3598 3.38564 17.3372V16.7169ZM3.03421 16.6266C3.09089 16.6492 3.17025 16.6605 3.22693 16.683V17.3034C3.17025 17.2921 3.09089 17.2695 3.03421 17.2583V16.6266ZM2.68279 16.5138C2.70547 16.5251 2.72814 16.5364 2.76215 16.5364C2.79616 16.5477 2.81883 16.559 2.87551 16.5702V17.2019C2.81883 17.1793 2.75081 17.168 2.69413 17.1455V16.5138H2.68279ZM2.38806 16.4123C2.41073 16.4236 2.4674 16.4462 2.52408 16.4687V17.1003C2.4674 17.0778 2.41073 17.0665 2.38806 17.0439V16.4123ZM2.13866 16.3108C2.16133 16.3221 2.19534 16.3334 2.21801 16.3446V16.9763C2.19534 16.965 2.16133 16.9537 2.13866 16.9424V16.3108ZM1.90059 16.198C1.90059 16.198 1.95728 16.2206 2.03663 16.2657V16.886C1.95728 16.8409 1.90059 16.8184 1.90059 16.8184V16.198ZM12.0238 19.3787C12.1485 19.2208 12.2165 19.0403 12.2165 18.8712C12.2165 18.7696 12.2165 18.3862 12.2165 18.2846C12.2165 18.2508 12.2165 18.2283 12.2052 18.1944C12.0692 19.2434 9.62054 20.0667 6.60512 20.0667C3.56701 20.0667 1.09573 19.2208 1.00504 18.1606C0.993702 18.1944 1.00504 18.2395 1.00504 18.2734V18.8599C1.00504 19.9427 3.51033 20.8224 6.60512 20.8224C6.93387 20.8224 7.26262 20.8112 7.58003 20.7886C7.62538 20.7435 7.67072 20.7096 7.71607 20.6645C8.05615 20.3713 8.54361 20.1231 9.15576 19.9088C9.97197 19.6494 10.9582 19.4577 12.0238 19.3787ZM2.03663 19.9427C1.95728 19.8976 1.90059 19.875 1.90059 19.875V19.2546C1.90059 19.2546 1.95728 19.2772 2.03663 19.3223V19.9427ZM2.21801 20.0216C2.19534 20.0103 2.16133 19.9991 2.13866 19.9878V19.3562C2.16133 19.3674 2.19534 19.3787 2.21801 19.39V20.0216ZM2.52408 20.1457C2.4674 20.1231 2.41073 20.1119 2.38806 20.0893V19.4577C2.41073 19.469 2.4674 19.4915 2.52408 19.5141V20.1457ZM2.86417 20.2698C2.80749 20.2472 2.73948 20.2359 2.68279 20.2134V19.5817C2.70547 19.593 2.72814 19.6043 2.76215 19.6043C2.79616 19.6156 2.81883 19.6269 2.87551 19.6381V20.2698H2.86417ZM3.2156 20.36C3.15892 20.3487 3.07956 20.3262 3.02288 20.3149V19.6945C3.07956 19.7171 3.15892 19.7284 3.2156 19.7509V20.36ZM3.56702 20.4277C3.56702 20.4277 3.48766 20.4164 3.3743 20.3938V19.7735C3.48766 19.796 3.56702 19.8073 3.56702 19.8073V20.4277ZM1.01637 27.3305C1.01637 28.4133 3.52167 29.293 6.61646 29.293C6.77516 29.293 6.92253 29.293 7.08124 29.2817C7.08124 29.2592 7.08124 29.2366 7.09258 29.2141C7.08124 29.1464 7.08124 29.0787 7.08124 29.0223V28.526C6.93387 28.526 6.77516 28.5373 6.61646 28.5373C3.57836 28.5373 1.10706 27.6914 1.01637 26.6312C1.00504 26.665 1.01637 26.7101 1.01637 26.744V27.3305ZM3.38564 28.2441C3.499 28.2666 3.57836 28.2779 3.57836 28.2779V28.8983C3.57836 28.8983 3.499 28.887 3.38564 28.8644V28.2441ZM3.03421 28.1538C3.09089 28.1764 3.17025 28.1877 3.22693 28.2102V28.8306C3.17025 28.8193 3.09089 28.7967 3.03421 28.7855V28.1538ZM2.68279 28.041C2.70547 28.0523 2.72814 28.0636 2.76215 28.0636C2.79616 28.0749 2.81883 28.0862 2.87551 28.0974V28.7291C2.81883 28.7065 2.75081 28.6952 2.69413 28.6727V28.041H2.68279ZM2.38806 27.9395C2.41073 27.9508 2.4674 27.9734 2.52408 27.9959V28.6276C2.4674 28.605 2.41073 28.5937 2.38806 28.5712V27.9395ZM2.13866 27.838C2.16133 27.8493 2.19534 27.8606 2.21801 27.8719V28.5035C2.19534 28.4922 2.16133 28.4809 2.13866 28.4697V27.838ZM1.90059 27.7252C1.90059 27.7252 1.95728 27.7478 2.03663 27.7929V28.4133C1.95728 28.3681 1.90059 28.3456 1.90059 28.3456V27.7252ZM13.3728 29.2028C10.3347 29.2028 7.86344 28.3569 7.77275 27.2966C7.76141 27.3305 7.77275 27.3756 7.77275 27.4094V27.9959C7.77275 29.0787 10.278 29.9585 13.3728 29.9585C16.4676 29.9585 18.9729 29.0787 18.9729 27.9959C18.9729 27.8944 18.9729 27.5109 18.9729 27.4094C18.9729 27.3756 18.9729 27.353 18.9616 27.3192C18.8369 28.3681 16.3769 29.2028 13.3728 29.2028ZM8.79301 29.0787C8.71365 29.0336 8.65697 29.011 8.65697 29.011V28.3907C8.65697 28.3907 8.71365 28.4133 8.79301 28.4584V29.0787ZM8.98572 29.169C8.96304 29.1577 8.92904 29.1464 8.90637 29.1351V28.5035C8.92904 28.5148 8.96304 28.526 8.98572 28.5373V29.169ZM9.28046 29.293C9.22378 29.2705 9.1671 29.2592 9.14443 29.2366V28.605C9.1671 28.6163 9.22378 28.6388 9.28046 28.6614V29.293ZM9.63188 29.4058C9.5752 29.3833 9.50719 29.372 9.45051 29.3494V28.7178C9.47318 28.7291 9.49585 28.7403 9.52986 28.7403C9.56387 28.7516 9.58654 28.7629 9.64322 28.7742V29.4058H9.63188ZM9.98331 29.496C9.92663 29.4848 9.84727 29.4622 9.79059 29.4509V28.8306C9.84727 28.8531 9.92663 28.8644 9.98331 28.887V29.496ZM10.3347 29.575C10.3347 29.575 10.2554 29.5637 10.142 29.5412V28.9208C10.2554 28.9434 10.3347 28.9546 10.3347 28.9546V29.575ZM13.3728 31.2443C10.3347 31.2443 7.86344 30.3984 7.77275 29.3381C7.76141 29.372 7.77275 29.4171 7.77275 29.4509V30.0374C7.77275 31.1202 10.278 32 13.3728 32C16.4676 32 18.9729 31.1202 18.9729 30.0374C18.9729 29.9359 18.9729 29.5524 18.9729 29.4509C18.9729 29.4171 18.9729 29.3945 18.9616 29.3607C18.8369 30.4097 16.3769 31.2443 13.3728 31.2443ZM8.79301 31.1202C8.71365 31.0751 8.65697 31.0526 8.65697 31.0526V30.4322C8.65697 30.4322 8.71365 30.4548 8.79301 30.4999V31.1202ZM8.98572 31.2105C8.96304 31.1992 8.92904 31.1879 8.90637 31.1766V30.545C8.92904 30.5563 8.96304 30.5676 8.98572 30.5788V31.2105ZM9.28046 31.3233C9.22378 31.3007 9.1671 31.2894 9.14443 31.2669V30.6352C9.1671 30.6465 9.22378 30.6691 9.28046 30.6916V31.3233ZM9.63188 31.4473C9.5752 31.4248 9.50719 31.4135 9.45051 31.3909V30.7593C9.47318 30.7706 9.49585 30.7819 9.52986 30.7819C9.56387 30.7931 9.58654 30.8044 9.64322 30.8157V31.4473H9.63188ZM9.98331 31.5376C9.92663 31.5263 9.84727 31.5037 9.79059 31.4924V30.8721C9.84727 30.8946 9.92663 30.9059 9.98331 30.9285V31.5376ZM10.3347 31.6052C10.3347 31.6052 10.2554 31.594 10.142 31.5714V30.951C10.2554 30.9736 10.3347 30.9849 10.3347 30.9849V31.6052ZM1.01637 19.1757C1.00504 19.2095 1.01637 19.2547 1.01637 19.2885V19.875C1.01637 20.9578 3.52167 21.8376 6.61646 21.8376C6.77516 21.8376 6.93387 21.8376 7.08124 21.8263C7.09257 21.612 7.16059 21.3413 7.36464 21.048C7.11525 21.0593 6.86585 21.0706 6.61646 21.0706C3.56702 21.0819 1.10706 20.2359 1.01637 19.1757ZM2.03663 20.9578C1.95728 20.9127 1.90059 20.8901 1.90059 20.8901V20.2698C1.90059 20.2698 1.95728 20.2923 2.03663 20.3374V20.9578ZM2.21801 21.048C2.19534 21.0367 2.16133 21.0255 2.13866 21.0142V20.3826C2.16133 20.3938 2.19534 20.4051 2.21801 20.4164V21.048ZM2.52408 21.1608C2.4674 21.1383 2.41073 21.127 2.38806 21.1044V20.4728C2.41073 20.4841 2.4674 20.5066 2.52408 20.5292V21.1608ZM2.86417 21.2849C2.80749 21.2623 2.73948 21.251 2.68279 21.2285V20.5969C2.70547 20.6081 2.72814 20.6194 2.76215 20.6194C2.79616 20.6307 2.81883 20.642 2.87551 20.6533V21.2849H2.86417ZM3.2156 21.3751C3.15892 21.3638 3.07956 21.3413 3.02288 21.33V20.7096C3.07956 20.7322 3.15892 20.7435 3.2156 20.766V21.3751ZM3.56702 21.4541C3.56702 21.4541 3.48766 21.4428 3.3743 21.4202V20.7999C3.48766 20.8224 3.56702 20.8337 3.56702 20.8337V21.4541ZM7.0699 29.6314C6.92253 29.6314 6.76382 29.6427 6.60512 29.6427C3.56701 29.6427 1.09573 28.7967 1.00504 27.7365C0.993702 27.7703 1.00504 27.8155 1.00504 27.8493V28.4358C1.00504 29.5186 3.51033 30.3984 6.60512 30.3984C6.77516 30.3984 6.9452 30.3984 7.10391 30.3871C7.0699 30.263 7.05856 30.139 7.05856 30.0374V29.6314H7.0699ZM2.03663 29.5073C1.95728 29.4622 1.90059 29.4397 1.90059 29.4397V28.8193C1.90059 28.8193 1.95728 28.8419 2.03663 28.887V29.5073ZM2.21801 29.5976C2.19534 29.5863 2.16133 29.575 2.13866 29.5637V28.9321C2.16133 28.9434 2.19534 28.9547 2.21801 28.9659V29.5976ZM2.52408 29.7216C2.4674 29.6991 2.41073 29.6878 2.38806 29.6652V29.0336C2.41073 29.0449 2.4674 29.0674 2.52408 29.09V29.7216ZM2.86417 29.8344C2.80749 29.8119 2.73948 29.8006 2.68279 29.778V29.1464C2.70547 29.1577 2.72814 29.169 2.76215 29.169C2.79616 29.1802 2.81883 29.1915 2.87551 29.2028V29.8344H2.86417ZM3.2156 29.9247C3.15892 29.9134 3.07956 29.8908 3.02288 29.8795V29.2592C3.07956 29.2817 3.15892 29.293 3.2156 29.3156V29.9247ZM3.56702 30.0036C3.56702 30.0036 3.48766 29.9923 3.3743 29.9698V29.3494C3.48766 29.372 3.56702 29.3833 3.56702 29.3833V30.0036ZM13.3728 30.2292C10.3347 30.2292 7.86344 29.3833 7.77275 28.323C7.76141 28.3569 7.77275 28.402 7.77275 28.4358V29.0223C7.77275 30.1051 10.278 30.9849 13.3728 30.9849C16.4676 30.9849 18.9729 30.1051 18.9729 29.0223C18.9729 28.9208 18.9729 28.5373 18.9729 28.4358C18.9729 28.402 18.9729 28.3794 18.9616 28.3456C18.8369 29.3945 16.3769 30.2292 13.3728 30.2292ZM8.79301 30.1051C8.71365 30.06 8.65697 30.0374 8.65697 30.0374V29.4171C8.65697 29.4171 8.71365 29.4397 8.79301 29.4848V30.1051ZM8.98572 30.1841C8.96304 30.1728 8.92904 30.1615 8.90637 30.1502V29.5299C8.92904 29.5412 8.96304 29.5524 8.98572 29.5637V30.1841ZM9.28046 30.3081C9.22378 30.2856 9.1671 30.2743 9.14443 30.2517V29.6201C9.1671 29.6314 9.22378 29.654 9.28046 29.6765V30.3081ZM9.63188 30.4209C9.5752 30.3984 9.50719 30.3871 9.45051 30.3645V29.7329C9.47318 29.7442 9.49585 29.7555 9.52986 29.7555C9.56387 29.7667 9.58654 29.778 9.64322 29.7893V30.4209H9.63188ZM9.98331 30.5224C9.92663 30.5112 9.84727 30.4886 9.79059 30.4773V29.857C9.84727 29.8795 9.92663 29.8908 9.98331 29.9134V30.5224ZM10.3347 30.5901C10.3347 30.5901 10.2554 30.5788 10.142 30.5563V29.9359C10.2554 29.9585 10.3347 29.9698 10.3347 29.9698V30.5901ZM13.3728 25.131C10.3347 25.131 7.86344 24.2851 7.77275 23.2249C7.76141 23.2587 7.77275 23.3038 7.77275 23.3377V23.9242C7.77275 25.007 10.278 25.8867 13.3728 25.8867C16.4676 25.8867 18.9729 25.007 18.9729 23.9242C18.9729 23.8227 18.9729 23.4392 18.9729 23.3377C18.9729 23.3038 18.9729 23.2813 18.9616 23.2474C18.8369 24.2964 16.3769 25.131 13.3728 25.131ZM8.79301 25.007C8.71365 24.9619 8.65697 24.9393 8.65697 24.9393V24.319C8.65697 24.319 8.71365 24.3415 8.79301 24.3866V25.007ZM8.98572 25.0972C8.96304 25.0859 8.92904 25.0746 8.90637 25.0634V24.4317C8.92904 24.443 8.96304 24.4543 8.98572 24.4656V25.0972ZM9.28046 25.21C9.22378 25.1874 9.1671 25.1762 9.14443 25.1536V24.522C9.1671 24.5333 9.22378 24.5558 9.28046 24.5784V25.21ZM9.63188 25.3341C9.5752 25.3115 9.50719 25.3002 9.45051 25.2777V24.646C9.47318 24.6573 9.49585 24.6686 9.52986 24.6686C9.56387 24.6799 9.58654 24.6912 9.64322 24.7024V25.3341H9.63188ZM9.98331 25.4243C9.92663 25.413 9.84727 25.3905 9.79059 25.3792V24.7588C9.84727 24.7814 9.92663 24.7927 9.98331 24.8152V25.4243ZM10.3347 25.5033C10.3347 25.5033 10.2554 25.492 10.142 25.4694V24.8491C10.2554 24.8716 10.3347 24.8829 10.3347 24.8829V25.5033ZM13.3728 24.1159C10.3347 24.1159 7.86344 23.27 7.77275 22.2098C7.76141 22.2436 7.77275 22.2887 7.77275 22.3226V22.9091C7.77275 23.9919 10.278 24.8716 13.3728 24.8716C16.4676 24.8716 18.9729 23.9919 18.9729 22.9091C18.9729 22.8076 18.9729 22.4241 18.9729 22.3226C18.9729 22.2887 18.9729 22.2662 18.9616 22.2323C18.8369 23.2813 16.3769 24.1159 13.3728 24.1159ZM8.79301 23.9919C8.71365 23.9467 8.65697 23.9242 8.65697 23.9242V23.3038C8.65697 23.3038 8.71365 23.3264 8.79301 23.3715V23.9919ZM8.98572 24.0821C8.96304 24.0708 8.92904 24.0595 8.90637 24.0483V23.4166C8.92904 23.4279 8.96304 23.4392 8.98572 23.4505V24.0821ZM9.28046 24.1949C9.22378 24.1723 9.1671 24.161 9.14443 24.1385V23.5069C9.1671 23.5181 9.22378 23.5407 9.28046 23.5633V24.1949ZM9.63188 24.319C9.5752 24.2964 9.50719 24.2851 9.45051 24.2626V23.6309C9.47318 23.6422 9.49585 23.6535 9.52986 23.6535C9.56387 23.6648 9.58654 23.676 9.64322 23.6873V24.319H9.63188ZM9.98331 24.4092C9.92663 24.3979 9.84727 24.3753 9.79059 24.3641V23.7437C9.84727 23.7663 9.92663 23.7776 9.98331 23.8001V24.4092ZM10.3347 24.4769C10.3347 24.4769 10.2554 24.4656 10.142 24.443V23.8227C10.2554 23.8452 10.3347 23.8565 10.3347 23.8565V24.4769ZM13.3728 27.1726C10.3347 27.1726 7.86344 26.3266 7.77275 25.2664C7.76141 25.3002 7.77275 25.3454 7.77275 25.3792V25.9657C7.77275 27.0485 10.278 27.9283 13.3728 27.9283C16.4676 27.9283 18.9729 27.0485 18.9729 25.9657C18.9729 25.8642 18.9729 25.4807 18.9729 25.3792C18.9729 25.3454 18.9729 25.3228 18.9616 25.289C18.8369 26.3379 16.3769 27.1726 13.3728 27.1726ZM8.79301 27.0485C8.71365 27.0034 8.65697 26.9808 8.65697 26.9808V26.3605C8.65697 26.3605 8.71365 26.383 8.79301 26.4281V27.0485ZM8.98572 27.1274C8.96304 27.1162 8.92904 27.1049 8.90637 27.0936V26.462C8.92904 26.4733 8.96304 26.4845 8.98572 26.4958V27.1274ZM9.28046 27.2515C9.22378 27.229 9.1671 27.2177 9.14443 27.1951V26.5635C9.1671 26.5748 9.22378 26.5973 9.28046 26.6199V27.2515ZM9.63188 27.3756C9.5752 27.353 9.50719 27.3417 9.45051 27.3192V26.6876C9.47318 26.6988 9.49585 26.7101 9.52986 26.7101C9.56387 26.7214 9.58654 26.7327 9.64322 26.744V27.3756H9.63188ZM9.98331 27.4658C9.92663 27.4545 9.84727 27.432 9.79059 27.4207V26.8003C9.84727 26.8229 9.92663 26.8342 9.98331 26.8567V27.4658ZM10.3347 27.5335C10.3347 27.5335 10.2554 27.5222 10.142 27.4997V26.8793C10.2554 26.9019 10.3347 26.9131 10.3347 26.9131V27.5335ZM13.3728 28.1877C10.3347 28.1877 7.86344 27.3417 7.77275 26.2815C7.76141 26.3153 7.77275 26.3605 7.77275 26.3943V26.9808C7.77275 28.0636 10.278 28.9434 13.3728 28.9434C16.4676 28.9434 18.9729 28.0636 18.9729 26.9808C18.9729 26.8793 18.9729 26.4958 18.9729 26.3943C18.9729 26.3605 18.9729 26.3379 18.9616 26.3041C18.8369 27.353 16.3769 28.1877 13.3728 28.1877ZM8.79301 28.0636C8.71365 28.0185 8.65697 27.9959 8.65697 27.9959V27.3756C8.65697 27.3756 8.71365 27.3981 8.79301 27.4433V28.0636ZM8.98572 28.1538C8.96304 28.1426 8.92904 28.1313 8.90637 28.12V27.4884C8.92904 27.4997 8.96304 27.5109 8.98572 27.5222V28.1538ZM9.28046 28.2666C9.22378 28.2441 9.1671 28.2328 9.14443 28.2102V27.5786C9.1671 27.5899 9.22378 27.6124 9.28046 27.635V28.2666ZM9.63188 28.3907C9.5752 28.3681 9.50719 28.3569 9.45051 28.3343V27.7027C9.47318 27.714 9.49585 27.7252 9.52986 27.7252C9.56387 27.7365 9.58654 27.7478 9.64322 27.7591V28.3907H9.63188ZM9.98331 28.4809C9.92663 28.4697 9.84727 28.4471 9.79059 28.4358V27.8155C9.84727 27.838 9.92663 27.8493 9.98331 27.8719V28.4809ZM10.3347 28.5599C10.3347 28.5599 10.2554 28.5486 10.142 28.526V27.9057C10.2554 27.9283 10.3347 27.9395 10.3347 27.9395V28.5599ZM13.3728 26.1462C10.3347 26.1462 7.86344 25.3002 7.77275 24.24C7.76141 24.2738 7.77275 24.319 7.77275 24.3528V24.9393C7.77275 26.0221 10.278 26.9019 13.3728 26.9019C16.4676 26.9019 18.9729 26.0221 18.9729 24.9393C18.9729 24.8378 18.9729 24.4543 18.9729 24.3528C18.9729 24.319 18.9729 24.2964 18.9616 24.2626C18.8369 25.3228 16.3769 26.1462 13.3728 26.1462ZM8.79301 26.0221C8.71365 25.977 8.65697 25.9544 8.65697 25.9544V25.3341C8.65697 25.3341 8.71365 25.3566 8.79301 25.4017V26.0221ZM8.98572 26.1123C8.96304 26.101 8.92904 26.0898 8.90637 26.0785V25.4469C8.92904 25.4581 8.96304 25.4694 8.98572 25.4807V26.1123ZM9.28046 26.2364C9.22378 26.2138 9.1671 26.2026 9.14443 26.18V25.5484C9.1671 25.5597 9.22378 25.5822 9.28046 25.6048V26.2364ZM9.63188 26.3492C9.5752 26.3266 9.50719 26.3153 9.45051 26.2928V25.6612C9.47318 25.6724 9.49585 25.6837 9.52986 25.6837C9.56387 25.695 9.58654 25.7063 9.64322 25.7176V26.3492H9.63188ZM9.98331 26.4507C9.92663 26.4394 9.84727 26.4169 9.79059 26.4056V25.7852C9.84727 25.8078 9.92663 25.8191 9.98331 25.8416V26.4507ZM10.3347 26.5184C10.3347 26.5184 10.2554 26.5071 10.142 26.4845V25.8642C10.2554 25.8867 10.3347 25.898 10.3347 25.898V26.5184ZM1.01637 25.1423C1.01637 26.2251 3.52167 27.1049 6.61646 27.1049C6.77516 27.1049 6.92253 27.1049 7.08124 27.0936C7.08124 27.0598 7.08124 27.0259 7.08124 26.9921V26.4056V26.3943C7.08124 26.383 7.08124 26.3605 7.08124 26.3379C6.93387 26.3379 6.77516 26.3492 6.61646 26.3492C3.57836 26.3492 1.10706 25.5033 1.01637 24.443C1.00504 24.4769 1.01637 24.522 1.01637 24.5558V25.1423ZM3.38564 26.0559C3.499 26.0785 3.57836 26.0898 3.57836 26.0898V26.7101C3.57836 26.7101 3.499 26.6988 3.38564 26.6763V26.0559ZM3.03421 25.9544C3.09089 25.977 3.17025 25.9883 3.22693 26.0108V26.6312C3.17025 26.6199 3.09089 26.5973 3.03421 26.586V25.9544ZM2.68279 25.8416C2.70547 25.8529 2.72814 25.8642 2.76215 25.8642C2.79616 25.8755 2.81883 25.8867 2.87551 25.898V26.5296C2.81883 26.5071 2.75081 26.4958 2.69413 26.4733V25.8416H2.68279ZM2.38806 25.7401C2.41073 25.7514 2.4674 25.774 2.52408 25.7965V26.4281C2.4674 26.4056 2.41073 26.3943 2.38806 26.3717V25.7401ZM2.13866 25.6386C2.16133 25.6499 2.19534 25.6612 2.21801 25.6724V26.3041C2.19534 26.2928 2.16133 26.2815 2.13866 26.2702V25.6386ZM1.90059 25.5258C1.90059 25.5258 1.95728 25.5484 2.03663 25.5935V26.2138C1.95728 26.1687 1.90059 26.1462 1.90059 26.1462V25.5258ZM1.01637 17.8448C1.01637 18.9276 3.52167 19.8073 6.61646 19.8073C9.71124 19.8073 12.2165 18.9276 12.2165 17.8448C12.2165 17.7433 12.2165 17.3598 12.2165 17.2583C12.2165 17.2244 12.2165 17.2019 12.2052 17.168C12.0692 18.217 9.62054 19.0403 6.60512 19.0403C3.56701 19.0403 1.09573 18.1944 1.00504 17.1342C0.993702 17.168 1.00504 17.2131 1.00504 17.247V17.8448H1.01637ZM3.38564 18.7584C3.499 18.7809 3.57836 18.7922 3.57836 18.7922V19.4126C3.57836 19.4126 3.499 19.4013 3.38564 19.3787V18.7584ZM3.03421 18.6681C3.09089 18.6907 3.17025 18.702 3.22693 18.7245V19.3449C3.17025 19.3336 3.09089 19.311 3.03421 19.2998V18.6681ZM2.68279 18.5553C2.70547 18.5666 2.72814 18.5779 2.76215 18.5779C2.79616 18.5892 2.81883 18.6005 2.87551 18.6117V19.2434C2.81883 19.2208 2.75081 19.2095 2.69413 19.187V18.5553H2.68279ZM2.38806 18.4426C2.41073 18.4538 2.4674 18.4764 2.52408 18.499V19.1306C2.4674 19.108 2.41073 19.0967 2.38806 19.0742V18.4426ZM2.13866 18.341C2.16133 18.3523 2.19534 18.3636 2.21801 18.3749V19.0065C2.19534 18.9952 2.16133 18.9839 2.13866 18.9727V18.341ZM1.90059 18.2283C1.90059 18.2283 1.95728 18.2508 2.03663 18.2959V18.9163C1.95728 18.8712 1.90059 18.8486 1.90059 18.8486V18.2283ZM1.01637 16.8296C1.01637 17.9124 3.52167 18.7922 6.61646 18.7922C9.71124 18.7922 12.2165 17.9124 12.2165 16.8296C12.2165 16.7281 12.2165 16.3446 12.2165 16.2431C12.2165 16.2093 12.2165 16.1867 12.2052 16.1529C12.0692 17.2019 9.62054 18.0252 6.60512 18.0252C3.56701 18.0252 1.09573 17.1793 1.00504 16.1191C0.993702 16.1529 1.00504 16.198 1.00504 16.2319V16.8296H1.01637ZM3.38564 17.7433C3.499 17.7658 3.57836 17.7771 3.57836 17.7771V18.3974C3.57836 18.3974 3.499 18.3862 3.38564 18.3636V17.7433ZM3.03421 17.653C3.09089 17.6756 3.17025 17.6869 3.22693 17.7094V18.3298C3.17025 18.3185 3.09089 18.2959 3.03421 18.2846V17.653ZM2.68279 17.5402C2.70547 17.5515 2.72814 17.5628 2.76215 17.5628C2.79616 17.5741 2.81883 17.5853 2.87551 17.5966V18.2283C2.81883 18.2057 2.75081 18.1944 2.69413 18.1719V17.5402H2.68279ZM2.38806 17.4274C2.41073 17.4387 2.4674 17.4613 2.52408 17.4838V18.1155C2.4674 18.0929 2.41073 18.0816 2.38806 18.0591V17.4274ZM2.13866 17.3259C2.16133 17.3372 2.19534 17.3485 2.21801 17.3598V17.9914C2.19534 17.9801 2.16133 17.9688 2.13866 17.9576V17.3259ZM1.90059 17.2131C1.90059 17.2131 1.95728 17.2357 2.03663 17.2808V17.9012C1.95728 17.856 1.90059 17.8335 1.90059 17.8335V17.2131ZM7.08124 22.097C6.92253 22.097 6.76382 22.1083 6.60512 22.1083C3.56701 22.1083 1.09573 21.2623 1.00504 20.2021C0.993702 20.2359 1.00504 20.281 1.00504 20.3149V20.9014C1.00504 21.9842 3.51033 22.864 6.60512 22.864C6.76382 22.864 6.9112 22.864 7.0699 22.8527V22.3226V22.3113C7.0699 22.2662 7.0699 22.1872 7.08124 22.097ZM2.03663 21.9729C1.95728 21.9278 1.90059 21.9052 1.90059 21.9052V21.2849C1.90059 21.2849 1.95728 21.3074 2.03663 21.3526V21.9729ZM2.21801 22.0631C2.19534 22.0519 2.16133 22.0406 2.13866 22.0293V21.3977C2.16133 21.409 2.19534 21.4202 2.21801 21.4315V22.0631ZM2.52408 22.1872C2.4674 22.1646 2.41073 22.1534 2.38806 22.1308V21.4992C2.41073 21.5105 2.4674 21.533 2.52408 21.5556V22.1872ZM2.86417 22.3C2.80749 22.2774 2.73948 22.2662 2.68279 22.2436V21.612C2.70547 21.6233 2.72814 21.6345 2.76215 21.6345C2.79616 21.6458 2.81883 21.6571 2.87551 21.6684V22.3H2.86417ZM3.2156 22.4015C3.15892 22.3902 3.07956 22.3677 3.02288 22.3564V21.736C3.07956 21.7586 3.15892 21.7699 3.2156 21.7924V22.4015ZM3.56702 22.4692C3.56702 22.4692 3.48766 22.4579 3.3743 22.4353V21.815C3.48766 21.8376 3.56702 21.8488 3.56702 21.8488V22.4692ZM9.40516 23.2587C11.5817 24.0031 15.1073 24.0031 17.2725 23.2587C19.449 22.5143 19.449 21.3074 17.2725 20.563C15.0959 19.8186 11.5704 19.8186 9.40516 20.563C7.23994 21.2962 7.23994 22.503 9.40516 23.2587ZM8.11284 21.9052C8.11284 21.8263 8.12417 21.7473 8.15818 21.6684H9.40516C9.35981 21.7473 9.34848 21.8263 9.34848 21.9052C9.34848 21.9842 9.37115 22.0631 9.40516 22.1421H8.15818C8.12417 22.0631 8.11284 21.9842 8.11284 21.9052ZM10.176 23.3264C9.99464 23.2813 9.81326 23.2249 9.64322 23.1685C9.47318 23.1121 9.3258 23.0557 9.17843 22.988L10.0627 22.6835C10.1987 22.7512 10.3461 22.8076 10.5161 22.864C10.6861 22.9203 10.8675 22.9767 11.0602 23.0219L10.176 23.3264ZM10.7542 21.0142C12.1825 20.5179 14.5065 20.5179 15.9348 21.0142C17.3632 21.5105 17.3632 22.3 15.9348 22.7963C14.5065 23.2926 12.1825 23.2926 10.7542 22.7963C9.32581 22.3 9.32581 21.5105 10.7542 21.0142ZM14.0643 23.676C13.849 23.6873 13.5996 23.6873 13.3615 23.6873C13.1234 23.6873 12.908 23.6873 12.67 23.676V23.2474C12.908 23.2587 13.1234 23.27 13.3615 23.27C13.5996 23.27 13.849 23.2587 14.0643 23.2474V23.676ZM17.0458 23.1685C16.8757 23.2249 16.7057 23.2813 16.513 23.3264L15.6287 23.0219C15.8214 22.9767 16.0028 22.9203 16.1615 22.864C16.3316 22.8076 16.479 22.7399 16.615 22.6835L17.4992 22.988C17.3632 23.0557 17.2158 23.1121 17.0458 23.1685ZM18.5761 21.9052C18.5761 21.9842 18.5648 22.0631 18.5308 22.1421H17.2838C17.3292 22.0631 17.3405 21.9842 17.3405 21.9052C17.3405 21.8263 17.3178 21.7473 17.2838 21.6684H18.5308C18.5648 21.7473 18.5761 21.8263 18.5761 21.9052ZM16.513 20.4728C16.6943 20.5179 16.8757 20.5743 17.0344 20.6307C17.2045 20.6871 17.3632 20.7548 17.4992 20.8112L16.615 21.1157C16.479 21.048 16.3316 20.9916 16.1615 20.9352C15.9915 20.8788 15.8101 20.8224 15.6287 20.7773L16.513 20.4728ZM12.67 20.1231C12.908 20.1119 13.1234 20.1119 13.3502 20.1119C13.5882 20.1119 13.8149 20.1119 14.053 20.1231V20.5517C13.8263 20.5405 13.5996 20.5292 13.3615 20.5292C13.1234 20.5292 12.908 20.5405 12.6813 20.5517V20.1231H12.67ZM10.176 20.4728L11.0602 20.7773C10.8675 20.8224 10.6861 20.8788 10.5161 20.9352C10.3461 20.9916 10.1987 21.0593 10.0627 21.1157L9.17843 20.8112C9.31447 20.7435 9.47318 20.6871 9.64322 20.6307C9.81326 20.5743 9.99464 20.5292 10.176 20.4728ZM12.2052 19.2095C12.1939 19.2659 12.1825 19.311 12.1712 19.3674C12.1825 19.3674 12.2052 19.3674 12.2165 19.3674C12.2165 19.3336 12.2165 19.311 12.2165 19.2998C12.2165 19.2659 12.2165 19.2321 12.2052 19.2095ZM1.01637 26.2364C1.01637 27.3192 3.52167 28.199 6.61646 28.199C6.77516 28.199 6.93387 28.199 7.09258 28.1877C7.08124 28.12 7.08124 28.0636 7.08124 27.9959V27.4207C6.93387 27.4207 6.77516 27.432 6.61646 27.432C3.57836 27.432 1.10706 26.586 1.01637 25.5258C1.00504 25.5597 1.01637 25.6048 1.01637 25.6386V26.2364ZM3.38564 27.15C3.499 27.1726 3.57836 27.1838 3.57836 27.1838V27.8042C3.57836 27.8042 3.499 27.7929 3.38564 27.7703V27.15ZM3.03421 27.0598C3.09089 27.0823 3.17025 27.0936 3.22693 27.1162V27.7365C3.17025 27.7252 3.09089 27.7027 3.03421 27.6914V27.0598ZM2.68279 26.947C2.70547 26.9583 2.72814 26.9695 2.76215 26.9695C2.79616 26.9808 2.81883 26.9921 2.87551 27.0034V27.635C2.81883 27.6124 2.75081 27.6012 2.69413 27.5786V26.947H2.68279ZM2.38806 26.8342C2.41073 26.8455 2.4674 26.868 2.52408 26.8906V27.5222C2.4674 27.4997 2.41073 27.4884 2.38806 27.4658V26.8342ZM2.13866 26.7327C2.16133 26.744 2.19534 26.7552 2.21801 26.7665V27.3981C2.19534 27.3869 2.16133 27.3756 2.13866 27.3643V26.7327ZM1.90059 26.6199C1.90059 26.6199 1.95728 26.6424 2.03663 26.6876V27.3079C1.95728 27.2628 1.90059 27.2402 1.90059 27.2402V26.6199ZM1.01637 24.037C1.01637 25.1198 3.52167 25.9995 6.61646 25.9995C6.77516 25.9995 6.92253 25.9995 7.08124 25.9883C7.08124 25.977 7.08124 25.9657 7.08124 25.9657V25.3792V25.3679C7.08124 25.3341 7.08124 25.289 7.08124 25.2326C6.92253 25.2326 6.77516 25.2438 6.61646 25.2438C3.57836 25.2438 1.10706 24.3979 1.01637 23.3377C1.00504 23.3715 1.01637 23.4166 1.01637 23.4505V24.037ZM3.38564 24.9506C3.499 24.9731 3.57836 24.9844 3.57836 24.9844V25.6048C3.57836 25.6048 3.499 25.5935 3.38564 25.5709V24.9506ZM3.03421 24.8603C3.09089 24.8829 3.17025 24.8942 3.22693 24.9167V25.5371C3.17025 25.5258 3.09089 25.5033 3.03421 25.492V24.8603ZM2.68279 24.7476C2.70547 24.7588 2.72814 24.7701 2.76215 24.7701C2.79616 24.7814 2.81883 24.7927 2.87551 24.804V25.4356C2.81883 25.413 2.75081 25.4017 2.69413 25.3792V24.7476H2.68279ZM2.38806 24.6348C2.41073 24.646 2.4674 24.6686 2.52408 24.6912V25.3228C2.4674 25.3002 2.41073 25.289 2.38806 25.2664V24.6348ZM2.13866 24.5333C2.16133 24.5445 2.19534 24.5558 2.21801 24.5671V25.1987C2.19534 25.1874 2.16133 25.1762 2.13866 25.1649V24.5333ZM1.90059 24.4205C1.90059 24.4205 1.95728 24.443 2.03663 24.4881V25.1085C1.95728 25.0634 1.90059 25.0408 1.90059 25.0408V24.4205ZM11.593 22.5369H12.3979C12.4093 22.5369 12.4319 22.5369 12.4319 22.5256L12.4433 22.4241C12.5906 22.4692 12.8287 22.5256 13.0781 22.5369V22.7399H13.6109V22.5369H13.8036C14.1437 22.5369 15.1186 22.4805 15.1186 22.097C15.1186 21.8263 14.6198 21.7586 14.4838 21.736C14.3477 21.7135 13.8603 21.6909 13.6109 21.6796V21.5105H13.6902C13.7696 21.5105 14.019 21.533 14.0983 21.6233C14.0983 21.6345 14.1097 21.6345 14.121 21.6345H14.9032C14.9259 21.6345 14.9372 21.6233 14.9372 21.612V21.3074C14.9372 21.2962 14.9259 21.2736 14.8805 21.2736H14.2344C14.2117 21.2736 14.189 21.2736 14.189 21.2962L14.155 21.3751C14.053 21.3413 13.8603 21.2962 13.5996 21.2849V21.0706H13.0667V21.2736H12.8174C12.4319 21.2736 12.1145 21.3187 11.9558 21.3864C11.8311 21.4315 11.5704 21.533 11.5704 21.7022C11.5704 21.8263 11.7518 21.9729 12.1485 22.0519C12.3526 22.097 12.8627 22.1308 13.0667 22.1308V22.2774H12.9194C12.8967 22.2774 12.5113 22.2662 12.4659 22.1647C12.4659 22.1534 12.4546 22.1421 12.4319 22.1421H11.593C11.5704 22.1421 11.5704 22.1534 11.5704 22.1647V22.503C11.5704 22.5256 11.5817 22.5369 11.593 22.5369ZM13.6109 22.1421H13.7923C13.8263 22.1421 13.9623 22.1647 13.9623 22.221C13.9623 22.2774 13.8149 22.2887 13.7923 22.2887H13.6222V22.1421H13.6109ZM12.738 21.6007C12.738 21.5217 12.908 21.5217 12.9761 21.5217H13.0894V21.6909C12.9647 21.6796 12.738 21.6684 12.738 21.6007ZM1.01637 21.9165C1.01637 22.9993 3.52167 23.8791 6.61646 23.8791C6.77516 23.8791 6.92253 23.8791 7.08124 23.8678V23.3377V23.3264C7.08124 23.2813 7.08124 23.2023 7.09258 23.1121C6.93387 23.1121 6.77516 23.1234 6.61646 23.1234C3.57836 23.1234 1.10706 22.2774 1.01637 21.2172C1.00504 21.251 1.01637 21.2962 1.01637 21.33V21.9165ZM3.38564 22.8301C3.499 22.8527 3.57836 22.864 3.57836 22.864V23.4843C3.57836 23.4843 3.499 23.473 3.38564 23.4505V22.8301ZM3.03421 22.7399C3.09089 22.7624 3.17025 22.7737 3.22693 22.7963V23.4166C3.17025 23.4053 3.09089 23.3828 3.03421 23.3715V22.7399ZM2.68279 22.6271C2.70547 22.6384 2.72814 22.6497 2.76215 22.6497C2.79616 22.6609 2.81883 22.6722 2.87551 22.6835V23.3151C2.81883 23.2926 2.75081 23.2813 2.69413 23.2587V22.6271H2.68279ZM2.38806 22.5256C2.41073 22.5369 2.4674 22.5594 2.52408 22.582V23.2136C2.4674 23.191 2.41073 23.1798 2.38806 23.1572V22.5256ZM2.13866 22.4241C2.16133 22.4353 2.19534 22.4466 2.21801 22.4579V23.0895C2.19534 23.0783 2.16133 23.067 2.13866 23.0557V22.4241ZM1.90059 22.3113C1.90059 22.3113 1.95728 22.3338 2.03663 22.379V22.9993C1.95728 22.9542 1.90059 22.9316 1.90059 22.9316V22.3113ZM1.01637 22.9429C1.01637 24.0257 3.52167 24.9055 6.61646 24.9055C6.77516 24.9055 6.92253 24.9055 7.08124 24.8942V24.3641V24.3528C7.08124 24.3077 7.08124 24.2287 7.09258 24.1385C6.93387 24.1385 6.77516 24.1498 6.61646 24.1498C3.57836 24.1498 1.10706 23.3038 1.01637 22.2436C1.00504 22.2774 1.01637 22.3226 1.01637 22.3564V22.9429ZM3.38564 23.8565C3.499 23.8791 3.57836 23.8903 3.57836 23.8903V24.5107C3.57836 24.5107 3.499 24.4994 3.38564 24.4769V23.8565ZM3.03421 23.7663C3.09089 23.7888 3.17025 23.8001 3.22693 23.8227V24.443C3.17025 24.4317 3.09089 24.4092 3.03421 24.3979V23.7663ZM2.68279 23.6535C2.70547 23.6648 2.72814 23.676 2.76215 23.676C2.79616 23.6873 2.81883 23.6986 2.87551 23.7099V24.3415C2.81883 24.319 2.75081 24.3077 2.69413 24.2851V23.6535H2.68279ZM2.38806 23.5407C2.41073 23.552 2.4674 23.5745 2.52408 23.5971V24.2287C2.4674 24.2062 2.41073 24.1949 2.38806 24.1723V23.5407ZM2.13866 23.4392C2.16133 23.4505 2.19534 23.4617 2.21801 23.473V24.1047C2.19534 24.0934 2.16133 24.0821 2.13866 24.0708V23.4392ZM1.90059 23.3264C1.90059 23.3264 1.95728 23.349 2.03663 23.3941V24.0144C1.95728 23.9693 1.90059 23.9467 1.90059 23.9467V23.3264ZM27.7018 5.86639L18.2927 3.36243C16.6263 2.92255 14.9259 3.90383 14.4724 5.55057L12.3866 13.2767C12.3979 13.288 12.3979 13.288 12.4093 13.2993C13.0441 13.8294 13.1801 14.4046 13.1801 14.7994C13.2028 14.8671 13.2255 14.946 13.2368 15.0137C13.2481 15.0814 13.2481 15.1491 13.2481 15.228C13.2481 15.2731 13.2481 15.3972 13.2481 15.5213C13.2481 15.6453 13.2481 15.7694 13.2481 15.8145C13.2481 15.8822 13.2481 15.9612 13.2368 16.0288C13.2481 16.0852 13.2481 16.1529 13.2481 16.2431C13.2481 16.2883 13.2481 16.4123 13.2481 16.5364C13.2481 16.6605 13.2481 16.7845 13.2481 16.8296C13.2481 16.8973 13.2481 16.9763 13.2368 17.0439C13.2481 17.1003 13.2481 17.168 13.2481 17.2583C13.2481 17.3034 13.2481 17.4274 13.2481 17.5515C13.2481 17.6756 13.2481 17.7996 13.2481 17.8448C13.2481 17.9124 13.2481 17.9914 13.2368 18.0591C13.2481 18.1155 13.2481 18.1831 13.2481 18.2734C13.2481 18.3185 13.2481 18.4426 13.2481 18.5666C13.2481 18.6907 13.2481 18.8148 13.2481 18.8599C13.2481 18.8937 13.2481 18.9163 13.2481 18.9501C13.2821 18.9501 13.3048 18.9501 13.3388 18.9501C14.9372 18.9501 16.4563 19.1644 17.6126 19.5705C17.7259 19.6156 17.8506 19.6494 17.9527 19.6945C18.4968 19.5141 19.0863 19.0967 19.3017 18.3072C19.0636 19.187 19.4717 19.8976 19.9138 20.3149L18.4968 19.9314C18.7575 20.0667 18.9842 20.2134 19.1656 20.3826C19.8005 20.9127 19.9365 21.4879 19.9365 21.8827C19.9592 21.9503 19.9818 22.0293 19.9932 22.097C20.0045 22.1421 20.0045 22.221 20.0045 22.3113V22.6045V22.8978C20.0045 22.9655 20.0045 23.0444 19.9932 23.1234C20.0045 23.1685 20.0045 23.2474 20.0045 23.3264V23.6196V23.9129C20.0045 23.9806 20.0045 24.0595 19.9932 24.1385C20.0045 24.1836 20.0045 24.2626 20.0045 24.3415V24.6348V24.928C20.0045 24.9957 20.0045 25.0747 19.9932 25.1536C20.0045 25.1987 20.0045 25.2777 20.0045 25.3566V25.6499V25.9431C20.0045 26.0108 20.0045 26.0898 19.9932 26.1687C20.0045 26.2138 20.0045 26.2928 20.0045 26.3717V26.665V26.9583C20.0045 27.0259 20.0045 27.1049 19.9932 27.1838C20.0045 27.229 20.0045 27.3079 20.0045 27.3869V27.6801V27.9734C20.0045 28.041 20.0045 28.12 19.9932 28.199C20.0045 28.2441 20.0045 28.323 20.0045 28.402V28.6952V28.9885C20.0045 29.011 20.0045 29.0336 20.0045 29.0449L21.3308 29.3945C22.9973 29.8344 24.6977 28.8531 25.1511 27.2064L29.8897 9.61104C30.3431 8.00941 29.3569 6.30627 27.7018 5.86639ZM15.8555 6.52057C16.0482 5.80999 17.1024 5.39267 17.6692 4.90767C17.93 5.61825 18.6215 6.49802 18.4288 7.2086C18.2361 7.91918 16.9324 7.64848 17.1931 6.6672C16.9324 7.65976 15.6627 7.23116 15.8555 6.52057ZM17.3405 7.74999L16.5356 7.53569C16.7624 7.4793 17.0231 7.32139 17.1138 6.9943C17.0231 7.33267 17.1705 7.59209 17.3405 7.74999ZM19.5397 17.45C18.8369 20.0555 15.4587 18.9388 15.9688 17.0552C16.4789 15.1716 19.2677 14.0663 20.798 12.7579C21.5009 14.6415 23.3373 16.9988 22.8272 18.8824C22.3284 20.766 18.8482 20.0667 19.5397 17.45ZM21.5576 27.8042C21.7843 27.7478 22.045 27.5899 22.1357 27.2628C22.045 27.5899 22.2037 27.8606 22.3624 28.0185L21.5576 27.8042ZM23.4621 27.4771C23.2693 28.1877 21.9657 27.917 22.2264 26.9357C21.9657 27.917 20.696 27.4997 20.8887 26.7891C21.0814 26.0785 22.1357 25.6612 22.7025 25.1762C22.9632 25.8755 23.6548 26.7665 23.4621 27.4771ZM26.3074 10.1412C26.5342 10.0848 26.7949 9.92685 26.8856 9.59976C26.7949 9.92685 26.9536 10.1976 27.1123 10.3555L26.3074 10.1412ZM28.2119 9.81406C28.0192 10.5246 26.7155 10.2539 26.9763 9.27267C26.7155 10.2539 25.4459 9.83662 25.6386 9.12604C25.8313 8.41546 26.8856 7.99813 27.4524 7.51313C27.7131 8.22371 28.4046 9.11476 28.2119 9.81406ZM4.25853 12.0135C4.99538 11.912 5.77758 11.8556 6.58245 11.8556C8.15818 11.8556 9.65455 12.0699 10.7995 12.4534C10.8562 12.4534 10.9129 12.4534 10.9696 12.4534C10.6408 12.1827 10.4027 11.7992 10.3234 11.3367C10.142 10.3216 10.8222 9.35162 11.8538 9.17116C12.1372 9.12604 12.4092 9.13732 12.67 9.20499L13.7129 5.33627C13.8603 4.7836 14.121 4.28732 14.4724 3.86999C14.4498 3.8136 14.4271 3.74592 14.4158 3.67825C14.3477 3.28348 14.6085 2.91127 15.0052 2.8436C15.0619 2.83232 15.1186 2.83232 15.1753 2.83232C15.0506 2.73081 14.9599 2.58418 14.9259 2.40371C14.8579 2.00894 15.1186 1.63674 15.5154 1.56906C15.9121 1.50139 16.2862 1.76081 16.3542 2.15557C16.3883 2.32476 16.3542 2.49395 16.2636 2.64057C16.3202 2.61802 16.3656 2.60674 16.4223 2.59546C16.4336 2.59546 16.4336 2.59546 16.4449 2.59546C16.7737 2.50522 17.1251 2.44883 17.4879 2.44883C17.828 2.44883 18.168 2.49395 18.4968 2.58418L18.8142 2.67441L18.7915 2.56162C18.4968 0.881037 16.8757 -0.246869 15.1866 0.0463869L5.5962 1.72697C3.9071 2.02022 2.77349 3.63313 3.06823 5.31371L4.25853 12.0135ZM5.8796 6.24988C6.07232 6.09197 6.26503 5.82127 6.19702 5.44906C6.26503 5.82127 6.5371 6.01302 6.77516 6.09197L5.8796 6.24988ZM5.31279 4.55802C5.36947 4.54674 5.42616 4.54674 5.48284 4.54674C5.35814 4.44522 5.26745 4.2986 5.23344 4.11813C5.16542 3.72336 5.42616 3.35116 5.82292 3.28348C6.21969 3.21581 6.59378 3.47522 6.6618 3.86999C6.69581 4.03918 6.6618 4.20836 6.57111 4.35499C6.62779 4.33243 6.67314 4.32115 6.72982 4.30988C7.12659 4.2422 7.50068 4.50162 7.56869 4.89639C7.63671 5.29116 7.37598 5.66336 6.97922 5.73104C6.58245 5.79871 6.20835 5.5393 6.14033 5.14453C6.20835 5.5393 5.94762 5.9115 5.55085 5.97918C5.15408 6.04685 4.77999 5.78743 4.71198 5.39267C4.66663 4.9979 4.92736 4.62569 5.31279 4.55802Z" fill="white"/>
</svg>
