<svg width="32" height="32" viewBox="0 0 32 32" fill="none" xmlns="http://www.w3.org/2000/svg">
<path d="M19.3891 16.2011L18.5098 10.5028H12.4902L11.6109 16.2011H19.3891ZM28.7116 16.2011L25.9498 10.5028H19.096L21.08 16.2011H28.7116ZM2.28836 16.2011H9.90873L11.8927 10.5028H5.03891L2.28836 16.2011ZM21.0913 17.1173V17.1285V17.1397V17.1508L15.5 31.9888L28.7229 17.1285V17.1173H21.0913ZM9.89745 17.1508V17.1397V17.1285H2.28836V17.1397L15.5113 32L9.89745 17.1508ZM19.3891 17.1173H11.5996V17.1397L15.5 31.9777L19.4004 17.1397L19.3891 17.1173ZM22.816 0.391062L19.7498 7.57541L21.2491 7.72067L22.816 0.391062ZM31 1.77653L24.6647 8.27933L26.0513 8.63687L31 1.77653ZM7.33854 8.14524L0 1.96648L6.01964 8.55866L7.33854 8.14524ZM11.8364 7.59777L8.77018 0.413402L10.3371 7.74301L11.8364 7.59777ZM15.6691 0L14.9025 7.3743H16.4244L15.6691 0Z" fill="white"/>
</svg>
