<svg width="392" height="31" viewBox="0 0 392 31" fill="none" xmlns="http://www.w3.org/2000/svg">
<path d="M16 4.04794L18.9608 11.4692L19.3103 12.3452L20.2512 12.4098L28.1977 12.9557L22.0787 18.1117L21.3636 18.7142L21.5897 19.6215L23.5285 27.4005L16.8014 23.1484L16 22.6418L15.1986 23.1484L8.47152 27.4005L10.4103 19.6215L10.6364 18.7142L9.92134 18.1117L3.80228 12.9557L11.7488 12.4098L12.6897 12.3452L13.0392 11.4692L16 4.04794Z" fill="#C3D5CF" stroke="#C3D5CF" stroke-width="3"/>
<path d="M56 4.04794L58.9608 11.4692L59.3103 12.3452L60.2512 12.4098L68.1977 12.9557L62.0787 18.1117L61.3636 18.7142L61.5897 19.6215L63.5285 27.4005L56.8014 23.1484L56 22.6418L55.1986 23.1484L48.4715 27.4005L50.4103 19.6215L50.6364 18.7142L49.9213 18.1117L43.8023 12.9557L51.7488 12.4098L52.6897 12.3452L53.0392 11.4692L56 4.04794Z" fill="#C3D5CF" stroke="#C3D5CF" stroke-width="3"/>
<path d="M96 4.04794L98.9608 11.4692L99.3103 12.3452L100.251 12.4098L108.198 12.9557L102.079 18.1117L101.364 18.7142L101.59 19.6215L103.528 27.4005L96.8014 23.1484L96 22.6418L95.1986 23.1484L88.4715 27.4005L90.4103 19.6215L90.6364 18.7142L89.9213 18.1117L83.8023 12.9557L91.7488 12.4098L92.6897 12.3452L93.0392 11.4692L96 4.04794Z" fill="#C3D5CF" stroke="#C3D5CF" stroke-width="3"/>
<path d="M136 4.04794L138.961 11.4692L139.31 12.3452L140.251 12.4098L148.198 12.9557L142.079 18.1117L141.364 18.7142L141.59 19.6215L143.528 27.4005L136.801 23.1484L136 22.6418L135.199 23.1484L128.472 27.4005L130.41 19.6215L130.636 18.7142L129.921 18.1117L123.802 12.9557L131.749 12.4098L132.69 12.3452L133.039 11.4692L136 4.04794Z" fill="#C3D5CF" stroke="#C3D5CF" stroke-width="3"/>
<path d="M176 4.04794L178.961 11.4692L179.31 12.3452L180.251 12.4098L188.198 12.9557L182.079 18.1117L181.364 18.7142L181.59 19.6215L183.528 27.4005L176.801 23.1484L176 22.6418L175.199 23.1484L168.472 27.4005L170.41 19.6215L170.636 18.7142L169.921 18.1117L163.802 12.9557L171.749 12.4098L172.69 12.3452L173.039 11.4692L176 4.04794Z" fill="#C3D5CF" stroke="#C3D5CF" stroke-width="3"/>
<path d="M216 4.04794L218.961 11.4692L219.31 12.3452L220.251 12.4098L228.198 12.9557L222.079 18.1117L221.364 18.7142L221.59 19.6215L223.528 27.4005L216.801 23.1484L216 22.6418L215.199 23.1484L208.472 27.4005L210.41 19.6215L210.636 18.7142L209.921 18.1117L203.802 12.9557L211.749 12.4098L212.69 12.3452L213.039 11.4692L216 4.04794Z" fill="#C3D5CF" stroke="#C3D5CF" stroke-width="3"/>
<path d="M256 4.04794L258.961 11.4692L259.31 12.3452L260.251 12.4098L268.198 12.9557L262.079 18.1117L261.364 18.7142L261.59 19.6215L263.528 27.4005L256.801 23.1484L256 22.6418L255.199 23.1484L248.472 27.4005L250.41 19.6215L250.636 18.7142L249.921 18.1117L243.802 12.9557L251.749 12.4098L252.69 12.3452L253.039 11.4692L256 4.04794Z" fill="#C3D5CF" stroke="#C3D5CF" stroke-width="3"/>
<path d="M296 4.04794L298.961 11.4692L299.31 12.3452L300.251 12.4098L308.198 12.9557L302.079 18.1117L301.364 18.7142L301.59 19.6215L303.528 27.4005L296.801 23.1484L296 22.6418L295.199 23.1484L288.472 27.4005L290.41 19.6215L290.636 18.7142L289.921 18.1117L283.802 12.9557L291.749 12.4098L292.69 12.3452L293.039 11.4692L296 4.04794Z" fill="#C3D5CF" stroke="#C3D5CF" stroke-width="3"/>
<path d="M336 4.04794L338.961 11.4692L339.31 12.3452L340.251 12.4098L348.198 12.9557L342.079 18.1117L341.364 18.7142L341.59 19.6215L343.528 27.4005L336.801 23.1484L336 22.6418L335.199 23.1484L328.472 27.4005L330.41 19.6215L330.636 18.7142L329.921 18.1117L323.802 12.9557L331.749 12.4098L332.69 12.3452L333.039 11.4692L336 4.04794Z" fill="#C3D5CF" stroke="#C3D5CF" stroke-width="3"/>
<path d="M376 4.04794L378.961 11.4692L379.31 12.3452L380.251 12.4098L388.198 12.9557L382.079 18.1117L381.364 18.7142L381.59 19.6215L383.528 27.4005L376.801 23.1484L376 22.6418L375.199 23.1484L368.472 27.4005L370.41 19.6215L370.636 18.7142L369.921 18.1117L363.802 12.9557L371.749 12.4098L372.69 12.3452L373.039 11.4692L376 4.04794Z" fill="#C3D5CF" stroke="#C3D5CF" stroke-width="3"/>
</svg>
